<?xml version="1.0" encoding="UTF-8"?>
<svg id="Layer_2" data-name="Layer 2" xmlns="http://www.w3.org/2000/svg" viewBox="0 0 39.57 27.37">
  <defs>
    <style>
      .cls-1 {
        fill: #3aa7d9;
      }
    </style>
  </defs>
  <g id="Layer_1-2" data-name="Layer 1">
    <path class="cls-1" d="M4.53,23.93l-.7-.1c-2.18-.32-3.83-2.33-3.83-4.67V4.73C0,2.12,1.99,0,4.43,0h27.35c2.08,0,3.9,1.58,4.33,3.75l.14.7-.7-.1c-.21-.03-.33-.05-.46-.05H7.74c-1.89,0-3.43,1.67-3.43,3.73v14.42c0,.26.03.52.08.79l.14.69ZM4.43,1c-1.89,0-3.43,1.67-3.43,3.73v14.42c0,1.6.96,3,2.31,3.51,0-.08,0-.15,0-.22v-14.42c0-2.61,1.99-4.73,4.43-4.73h27.2c-.53-1.36-1.77-2.29-3.16-2.29H4.43Z"/>
    <path class="cls-1" d="M34.75,27.37H8.17c-2.65,0-4.81-2.16-4.81-4.81V7.85c0-2.65,2.16-4.81,4.81-4.81h26.58c2.65,0,4.81,2.16,4.81,4.81v14.7c0,2.65-2.16,4.81-4.81,4.81ZM8.17,4.04c-2.1,0-3.81,1.71-3.81,3.81v14.7c0,2.1,1.71,3.81,3.81,3.81h26.58c2.1,0,3.81-1.71,3.81-3.81V7.85c0-2.1-1.71-3.81-3.81-3.81H8.17Z"/>
    <rect class="cls-1" x="3.81" y="9.23" width="35.26" height="1"/>
    <g>
      <circle class="cls-1" cx="8.36" cy="6.84" r="1.27"/>
      <circle class="cls-1" cx="12.3" cy="6.84" r="1.27"/>
      <circle class="cls-1" cx="16.24" cy="6.84" r="1.27"/>
    </g>
    <g>
      <path class="cls-1" d="M22.06,21.44c-.21.27-.53.46-.89.46h-4.74c-.63,0-1.15-.52-1.15-1.15v-3.49c0-.63.52-1.15,1.15-1.15h4.74c.63,0,1.15.52,1.15,1.15v.18h1v-.18c0-.88-.53-1.64-1.3-1.97.13-2.56-1.76-4.72-4.47-3.68-1.64.63-2.01,2.1-1.98,3.68-.76.33-1.29,1.09-1.29,1.97v3.49c0,1.19.96,2.15,2.15,2.15h4.74c.94,0,1.74-.61,2.03-1.46h-1.13ZM18.73,12.67c1.39-.04,1.94,1.24,1.93,2.45h-3.77c0-1.17.49-2.41,1.83-2.45Z"/>
      <path class="cls-1" d="M28.36,21.8h-7.77c-.7,0-1.28-.57-1.28-1.28v-2.62c0-.7.57-1.28,1.28-1.28h7.77c.7,0,1.28.57,1.28,1.28v2.62c0,.7-.57,1.28-1.28,1.28ZM20.59,17.62c-.15,0-.28.12-.28.28v2.62c0,.15.12.28.28.28h7.77c.15,0,.28-.12.28-.28v-2.62c0-.15-.12-.28-.28-.28h-7.77Z"/>
    </g>
    <g>
      <path class="cls-1" d="M20.68,19.42c-.02.08-.01.16.03.23.04.07.1.12.18.14.08.02.16.01.23-.03.04-.02.11-.07.19-.14.09-.07.17-.15.24-.22-.03.1-.05.21-.07.32-.02.11-.03.19-.03.24,0,.08.03.15.09.21s.13.09.21.09c.08,0,.15-.03.21-.09.06-.06.09-.13.09-.21,0-.05,0-.13-.03-.24-.02-.11-.04-.22-.07-.32.07.08.15.15.24.22.09.07.15.12.19.14.07.04.15.05.23.03s.14-.07.18-.14.05-.15.03-.23-.07-.14-.14-.19c-.04-.02-.12-.06-.22-.09-.1-.04-.21-.07-.31-.1.1-.03.2-.06.31-.1.1-.04.18-.07.22-.09.07-.04.12-.1.14-.18.02-.08.01-.16-.03-.23-.04-.07-.1-.12-.18-.14s-.16-.01-.23.03c-.04.03-.11.07-.19.14-.09.07-.16.14-.24.22.03-.1.05-.2.07-.32.02-.11.03-.19.03-.24,0-.08-.03-.15-.09-.21-.06-.06-.13-.09-.21-.09s-.15.03-.21.09c-.06.06-.09.13-.09.21,0,.05,0,.13.03.24.02.11.04.21.07.32-.07-.07-.15-.15-.24-.22-.09-.07-.15-.12-.19-.15-.07-.04-.15-.05-.23-.03-.08.02-.14.07-.18.14-.04.07-.05.15-.03.23.02.08.07.14.14.18.04.02.11.06.22.09s.21.07.31.1c-.1.03-.2.06-.31.1-.1.04-.18.07-.22.09-.07.04-.12.1-.14.19h0Z"/>
      <path class="cls-1" d="M23.36,19.42c-.02.08-.01.16.03.23.04.07.1.12.18.14.08.02.16.01.23-.03.04-.02.11-.07.19-.14.09-.07.17-.15.24-.22-.03.1-.05.21-.07.32-.02.11-.03.19-.03.24,0,.08.03.15.09.21s.13.09.21.09c.08,0,.15-.03.21-.09.06-.06.09-.13.09-.21,0-.05,0-.13-.03-.24-.02-.11-.04-.22-.07-.32.07.08.15.15.24.22.09.07.15.12.19.14.07.04.15.05.23.03s.14-.07.18-.14.05-.15.03-.23-.07-.14-.14-.19c-.04-.02-.12-.06-.22-.09-.1-.04-.21-.07-.31-.1.1-.03.2-.06.31-.1.1-.04.18-.07.22-.09.07-.04.12-.1.14-.18.02-.08.01-.16-.03-.23-.04-.07-.1-.12-.18-.14s-.16-.01-.23.03c-.04.03-.11.07-.19.14-.09.07-.16.14-.24.22.03-.1.05-.2.07-.32.02-.11.03-.19.03-.24,0-.08-.03-.15-.09-.21-.06-.06-.13-.09-.21-.09s-.15.03-.21.09c-.06.06-.09.13-.09.21,0,.05,0,.13.03.24.02.11.04.21.07.32-.07-.07-.15-.15-.24-.22-.09-.07-.15-.12-.19-.15-.07-.04-.15-.05-.23-.03-.08.02-.14.07-.18.14-.04.07-.05.15-.03.23.02.08.07.14.14.18.04.02.11.06.22.09s.21.07.31.1c-.1.03-.2.06-.31.1-.1.04-.18.07-.22.09-.07.04-.12.1-.14.19h0Z"/>
      <path class="cls-1" d="M25.93,19.42c-.02.08-.01.16.03.23.04.07.1.12.18.14.08.02.16.01.23-.03.04-.02.11-.07.19-.14.09-.07.17-.15.24-.22-.03.1-.05.21-.07.32-.02.11-.03.19-.03.24,0,.08.03.15.09.21s.13.09.21.09c.08,0,.15-.03.21-.09.06-.06.09-.13.09-.21,0-.05,0-.13-.03-.24-.02-.11-.04-.22-.07-.32.07.08.15.15.24.22.09.07.15.12.19.14.07.04.15.05.23.03s.14-.07.18-.14.05-.15.03-.23-.07-.14-.14-.19c-.04-.02-.12-.06-.22-.09-.1-.04-.21-.07-.31-.1.1-.03.2-.06.31-.1.1-.04.18-.07.22-.09.07-.04.12-.1.14-.18.02-.08.01-.16-.03-.23-.04-.07-.1-.12-.18-.14s-.16-.01-.23.03c-.04.03-.11.07-.19.14-.09.07-.16.14-.24.22.03-.1.05-.2.07-.32.02-.11.03-.19.03-.24,0-.08-.03-.15-.09-.21-.06-.06-.13-.09-.21-.09s-.15.03-.21.09c-.06.06-.09.13-.09.21,0,.05,0,.13.03.24.02.11.04.21.07.32-.07-.07-.15-.15-.24-.22-.09-.07-.15-.12-.19-.15-.07-.04-.15-.05-.23-.03-.08.02-.14.07-.18.14-.04.07-.05.15-.03.23.02.08.07.14.14.18.04.02.11.06.22.09s.21.07.31.1c-.1.03-.2.06-.31.1-.1.04-.18.07-.22.09-.07.04-.12.1-.14.19h0Z"/>
    </g>
  </g>
</svg>