<?xml version="1.0" encoding="UTF-8"?>
<svg id="Layer_1" data-name="Layer 1" xmlns="http://www.w3.org/2000/svg" viewBox="0 0 60 60">
  <defs>
    <style>
      .cls-1, .cls-2 {
        fill: #3aa7d9;
      }

      .cls-3 {
        fill: none;
        stroke: #3aa7d9;
        stroke-miterlimit: 10;
        stroke-width: 1.5px;
      }

      .cls-2 {
        fill-rule: evenodd;
      }
    </style>
  </defs>
  <path class="cls-1" d="M16.18,17.24H2.55v-1.96h13.63c.45,0,.82-.37.82-.82V2.53h1.96v11.93c0,1.54-1.25,2.78-2.78,2.78Z"/>
  <path class="cls-1" d="M43.06,58.45H8.35c-3.74,0-6.78-3.04-6.78-6.78V17.34c0-.96.41-1.88,1.13-2.52L16.66,2.4c.62-.55,1.41-.85,2.24-.85h24.16c3.74,0,6.78,3.04,6.78,6.78v13.42c0,.54-.44.98-.98.98h0c-.54,0-.98-.44-.98-.98v-13.42c0-2.66-2.16-4.82-4.82-4.82h-24.32c-.24,0-.47.09-.65.25L3.86,16.41c-.21.19-.33.45-.33.73v34.53c0,2.66,2.16,4.82,4.82,4.82h34.71c2.66,0,4.82-2.16,4.82-4.82v-1.12c0-.54.44-.98.98-.98h0c.54,0,.98.44.98.98v1.12c0,3.74-3.04,6.78-6.78,6.78Z"/>
  <path class="cls-1" d="M42.24,17.38h-11.97c-.44,0-.79-.35-.79-.79v-.38c0-.44.35-.79.79-.79h11.63c.44,0,.79-.35.79-.79v-2.61c0-.44-.35-.79-.79-.79h-16.83c-.44,0-.79.35-.79.79v2.61c0,.44.35.79.79.79h.24c.44,0,.79.35.79.79v.38c0,.44-.35.79-.79.79h-.58c-1.33,0-2.41-1.08-2.41-2.41v-3.29c0-1.33,1.08-2.41,2.41-2.41h17.52c1.33,0,2.41,1.08,2.41,2.41v3.29c0,1.33-1.08,2.41-2.41,2.41Z"/>
  <g>
    <path id="_42.Badge" data-name=" 42.Badge" class="cls-2" d="M58.33,35.06v1.87c0,.31-.18.59-.46.74l-1.92.96s-.09.06-.12.1l-1.37,2.07h-.36v9.19h0c0,.33-.29.61-.67.61-.01,0-.02,0-.03,0h0c-.22,0-.42-.09-.55-.25l-3.11-2.7c-.33-.28-.82-.28-1.15,0l-3.11,2.7c-.13.15-.33.24-.55.25h0c-.38,0-.69-.25-.7-.58,0,0,0-.02,0-.03h0v-9.2h-.36l-1.37-2.07s-.07-.08-.12-.1l-1.92-.97c-.28-.14-.46-.43-.46-.74v-1.87c0-.06-.02-.11-.05-.16l-1.07-1.61c-.18-.27-.18-.62,0-.9l1.07-1.61s.05-.1.05-.16v-1.87c0-.31.18-.59.46-.74l1.92-.96s.09-.06.12-.1l1.12-1.69c.16-.24.43-.38.72-.38h2.29s.1-.01.14-.03l1.99-1c.25-.12.54-.12.79,0l1.99,1s.09.03.14.03h2.29c.29,0,.57.14.72.38l1.12,1.68s.07.08.12.1l1.92.96c.28.14.46.43.46.74v1.87c0,.06.02.11.05.16l1.07,1.61c.18.27.18.62,0,.9l-1.07,1.61s-.05.1-.05.16ZM45.63,40.8v5.87c0,.72.88,1.1,1.43.62l1.52-1.32s.04-.06.07-.09c.28-.23.72-.23,1.01,0,.03.03.05.06.07.09l1.52,1.32c.55.48,1.43.1,1.43-.62v-5.04c0-.46-.38-.83-.86-.83h0c-.14,0-.27.03-.4.09l-1.87.94c-.25.12-.54.12-.79,0l-1.87-.94c-.12-.06-.26-.09-.4-.09h-.86,0ZM56.91,30.79v-.44c0-.86-.49-1.64-1.28-2.04l-.59-.3c-.13-.07-.25-.17-.33-.29l-.37-.56c-.44-.66-1.19-1.06-2-1.06h-.89c-.14,0-.27-.03-.4-.09l-.79-.4c-.69-.34-1.51-.34-2.19,0l-.79.4c-.12.06-.26.09-.4.09h-.89c-.81,0-1.56.4-2,1.06l-.37.56c-.08.12-.19.22-.33.29l-.59.3c-.79.4-1.28,1.18-1.28,2.04v.44c0,.16-.05.31-.14.45l-.24.37c-.5.76-.5,1.72,0,2.48l.24.36c.09.13.14.29.14.45v.44c0,.86.5,1.64,1.28,2.04l.59.3c.13.07.25.17.33.29l.37.56c.44.66,1.19,1.06,2,1.06h.89c.14,0,.27.03.4.09l.79.4c.69.35,1.51.35,2.19,0l.79-.4c.12-.06.26-.09.4-.09h.89c.81,0,1.57-.4,2-1.06l.37-.56c.08-.12.19-.22.33-.29l.59-.3c.79-.4,1.28-1.18,1.28-2.04v-.44c0-.16.05-.31.14-.45l.24-.36c.5-.76.5-1.72,0-2.48l-.24-.36c-.09-.13-.14-.29-.14-.45Z"/>
    <ellipse class="cls-3" cx="49.15" cy="32.83" rx="4.82" ry="4.65"/>
  </g>
  <rect class="cls-1" x="7.14" y="24.88" width="26.01" height="2.59" rx="1.3" ry="1.3"/>
  <rect class="cls-1" x="7.14" y="30.37" width="26.01" height="2.59" rx="1.3" ry="1.3"/>
  <rect class="cls-1" x="7.14" y="35.86" width="26.01" height="2.59" rx="1.3" ry="1.3"/>
  <rect class="cls-1" x="7.14" y="41.35" width="26.01" height="2.59" rx="1.3" ry="1.3"/>
  <rect class="cls-1" x="7.14" y="48.13" width="13.2" height="2.59" rx="1.3" ry="1.3"/>
</svg>