<?xml version="1.0" encoding="UTF-8"?>
<svg id="Layer_2" data-name="Layer 2" xmlns="http://www.w3.org/2000/svg" viewBox="0 0 44.08 44.1">
  <defs>
    <style>
      .cls-1 {
        fill: #3aa7d9;
      }
    </style>
  </defs>
  <g id="Layer_1-2" data-name="Layer 1">
    <path class="cls-1" d="M1.81,34.15c.29,1.42,4.07,2.61,5.32,2.95,3.42.93,7.1,1.35,10.65,1.49.99.04,2.25-.13,3.18,0,1.05.15,1.07,1.58.07,1.78-.69.14-2.46.05-3.26.02-2.75-.08-5.61-.39-8.32-.89S.26,37.51,0,34.07V6.18C.38,3.01,6.54,1.51,9.13,1.01c6.76-1.32,14.92-1.33,21.7-.08,2.68.49,9.27,1.99,9.56,5.34v14.72c-.11.75-.95,1.11-1.51.57-.08-.08-.3-.49-.3-.56v-2.54c-.91.57-1.89,1.08-2.91,1.44-.46.16-1.12.46-1.6.35-.67-.15-.8-1.21-.26-1.61,1-.43,2.06-.68,3.02-1.2.41-.22,1.75-1.13,1.75-1.61v-6.5l-2.62,1.29c-10.04,3.09-21.81,3.12-31.81-.13l-2.33-1.16v6.41c0,.79,2.04,1.84,2.7,2.12,5.25,2.26,13.45,2.58,19.13,2.31.93-.04,2.42-.36,3.27-.26.99.12,1.11,1.4.26,1.73-.38.15-1.67.21-2.16.25-4.23.32-8.87.19-13.07-.35-3.46-.45-7.15-1.23-10.13-3.09v6.5c0,.13.32.56.43.69,2.28,2.62,11.44,3.56,14.85,3.74.73.04,2.63-.19,3.11.29.52.51.23,1.44-.53,1.52s-1.91.03-2.67,0c-4.3-.17-8.9-.92-12.93-2.39l-2.27-1.14v6.5ZM18.5,1.85c-4.04.12-12.63.86-15.82,3.38-1.95,1.54.04,2.62,1.51,3.3,5.82,2.66,15.88,2.86,22.2,2.25,2.69-.26,10.23-1.47,11.88-3.61,1.21-1.58-1.99-2.8-3.08-3.21-4.82-1.82-11.57-2.25-16.7-2.1Z"/>
    <path class="cls-1" d="M44.08,29.46v.34c-.17.54-1.53,1.39-1.56,1.85-.01.19.09.39.1.6.02.8,0,1.6-.07,2.4.47.61,1.15,1.03,1.53,1.7v.34l-1.91,3.39c-.62,1.21-2.16-.09-2.85.07-.18.04-1.01.7-1.3.86-.41.23-.85.43-1.3.59-.48.77-.2,2.04-1.17,2.49h-4.05c-1.08-.34-.76-1.71-1.26-2.49-.39-.14-.77-.31-1.13-.51-.26-.15-1.36-.93-1.47-.95-.88-.16-1.95,1.15-2.85-.07-.68-.92-1.23-2.33-1.85-3.32-.19-.88,1.05-1.44,1.48-2.11-.05-.77-.09-1.54-.07-2.31,0-.23.12-.45.1-.69-.05-.6-1.62-1.28-1.54-2.13.01-.14.13-.36.19-.5.29-.63,1.36-2.54,1.77-3.05.83-1.04,1.97.18,2.78.03.12-.02,1.19-.8,1.47-.95s1.14-.45,1.24-.65c.46-.9-.04-2.22,1.44-2.35.78-.07,2.87-.1,3.6.02,1.15.19.82,1.73,1.32,2.47.45.16.89.36,1.3.59.26.15,1.16.83,1.3.86.69.16,2.22-1.13,2.85.07l1.91,3.39ZM32.43,23.88c-.29.1-.24,1.7-.84,2.09-.4.26-1.18.44-1.69.72-.61.34-1.55,1.32-2.18,1.27-.47-.04-1.11-.35-1.59-.46l-1.14,1.92c.51.69,1.41,1.01,1.36,1.98-.04.79-.23,1.45-.18,2.33.04.61.38,1.23,0,1.8-.15.23-1.18,1.08-1.19,1.2l1.1,1.9c.08.05,1.41-.44,1.7-.45.57-.02,1.55.96,2.12,1.28.46.26,1.5.55,1.79.8.43.36.42,1.49.68,1.99.09.06,1.91.08,2.12.04.13-.02.14-.03.2-.15.25-.49.15-1.61.71-1.96.46-.28,1.29-.48,1.86-.81s1.38-1.24,2.01-1.18c.28.02,1.56.49,1.64.44l1.1-1.97c-.33-.51-1.22-.87-1.34-1.5-.11-.53.23-1.52.23-2.12,0-.56-.29-1.4-.26-1.9.05-.78,1.4-1.43,1.37-1.71-.01-.11-1.01-1.86-1.1-1.91-.51.05-1.2.43-1.69.45-.57.02-1.4-.87-1.95-1.19-.48-.28-1.67-.64-1.96-.88-.44-.38-.42-1.48-.68-1.99-.09-.06-2.04-.08-2.19-.03Z"/>
    <path class="cls-1" d="M38.99,33.08c0,3.04-2.46,5.5-5.5,5.5s-5.5-2.46-5.5-5.5,2.46-5.5,5.5-5.5,5.5,2.46,5.5,5.5ZM37.18,33.08c0-2.03-1.65-3.68-3.68-3.68s-3.68,1.65-3.68,3.68,1.65,3.68,3.68,3.68,3.68-1.65,3.68-3.68Z"/>
  </g>
</svg>