<?xml version="1.0" encoding="UTF-8"?>
<svg id="Layer_1" data-name="Layer 1" xmlns="http://www.w3.org/2000/svg" viewBox="0 0 100 60">
  <defs>
    <style>
      .cls-1 {
        fill: #3da6d7;
      }
    </style>
  </defs>
  <path class="cls-1" d="M50.02,37.21v8.28c-.15.05-1.5.06-1.77.01v-8.29H3.83c-.01-.54,0-1.07,0-1.58.02-.02.02-.02.02-.03,0,0,.01,0,.02-.01,0,0,.01,0,.02,0,.01,0,.03,0,.04,0,0,0,.01,0,.02,0,.01,0,.03,0,.04,0,14.71,0,29.43,0,44.14,0,.01,0,.03,0,.04,0,0,0,.01,0,.02,0,0,0,.01,0,.02,0,0,0,.01,0,.05-.02,0-.36,0-.74,0-1.11,0-.37,0-.74,0-1.11v-4.49c0-.38,0-.75,0-1.14h1.74s0,0,.01,0c0,0,0,0,.01.02,0,0,0,.01,0,.02,0,.01,0,.03,0,.04,0,.01,0,.03,0,.04,0,2.56,0,5.11,0,7.67,0,.01,0,.03,0,.04,0,0,0,.01,0,.03.04,0,.08.02.12.02.07,0,.15,0,.22,0,15.21,0,30.42,0,45.63,0,.1,0,.19,0,.3,0v1.63h-46.28Z"/>
  <g>
    <polygon class="cls-1" points="4.13 20.68 6.63 20.68 6.63 12.13 14.01 12.13 14.01 10.31 6.63 10.31 6.63 4.81 15.43 4.81 15.43 2.99 4.13 2.99 4.13 20.68"/>
    <path class="cls-1" d="M27.24,2.99l-5.77,17.52,2.47.52,1.76-5.75h5.95l1.76,5.75,2.47-.52L30.12,2.99h-2.88ZM31.04,13.47h-4.72l2.36-7.72,2.36,7.72Z"/>
    <polygon class="cls-1" points="48.93 15.45 44.37 2.64 41.82 3.04 48.58 21.02 49.29 21.02 56.05 3.04 53.5 2.64 48.93 15.45"/>
    <polygon class="cls-1" points="64.24 20.68 75.44 20.68 75.44 18.86 66.75 18.86 66.75 12.13 73.93 12.13 73.93 10.31 66.75 10.31 66.75 4.81 75.44 4.81 75.44 2.99 64.24 2.99 64.24 20.68"/>
    <path class="cls-1" d="M95.01,6.35c-.97-2.39-2.85-3.6-5.57-3.6s-4.49,1.17-5.48,3.47c-.78,1.8-.88,3.94-.88,5.6v.17c0,1.71,0,5.26,2.07,7.35,1.04,1.05,2.49,1.58,4.29,1.58,2.72,0,4.6-1.23,5.57-3.65.79-1.95.79-4.16.79-5.34v-.21c0-1.2,0-3.43-.79-5.36ZM89.44,19.02c-3.14,0-3.75-2.64-3.75-7.2v-.19c0-1.29,0-3.06.47-4.49.56-1.68,1.63-2.49,3.28-2.49s2.74.73,3.28,2.23c.48,1.34.48,3.12.47,4.7v.32c0,1.47,0,3.3-.48,4.72-.55,1.62-1.62,2.4-3.27,2.4Z"/>
  </g>
  <g>
    <path class="cls-1" d="M4.95,53.64c0,.28-.04.53-.13.75-.09.22-.21.41-.36.56-.15.15-.33.27-.54.35-.21.08-.43.12-.66.12-.32,0-.62-.07-.91-.2-.29-.13-.52-.3-.69-.52l.47-.57c.14.17.31.31.51.41.2.1.41.15.62.15.27,0,.48-.09.66-.26.17-.17.26-.43.26-.76,0-.16-.03-.29-.08-.41-.05-.12-.13-.23-.22-.32-.09-.1-.2-.18-.32-.26-.12-.08-.25-.15-.39-.22-.17-.08-.33-.17-.48-.27-.15-.1-.29-.22-.4-.35-.12-.13-.21-.29-.28-.47-.07-.18-.1-.4-.1-.65,0-.3.05-.55.14-.77.09-.22.22-.4.38-.55.16-.14.34-.25.54-.32.2-.07.4-.1.61-.1.3,0,.57.05.81.15.24.1.44.25.6.44l-.48.56c-.22-.29-.53-.43-.9-.43-.11,0-.22.02-.33.06-.11.04-.21.1-.3.18-.09.08-.16.19-.21.32-.05.13-.08.28-.08.46,0,.16.03.29.08.4.05.11.12.21.2.3.09.09.18.17.3.24.11.07.23.14.36.2.17.08.33.17.49.27s.3.22.43.36c.13.14.23.3.31.49.08.19.12.41.12.66Z"/>
    <path class="cls-1" d="M6.82,49.62c0,.14-.05.26-.14.36-.09.09-.2.14-.33.14s-.25-.05-.34-.14c-.09-.09-.13-.21-.13-.36s.04-.26.13-.35c.09-.1.2-.14.34-.14s.25.05.34.14c.09.1.13.21.13.35ZM5.97,55.28v-4.37h.75v4.37h-.75Z"/>
    <path class="cls-1" d="M9.18,51.02c.19-.17.43-.26.72-.26.16,0,.3.03.41.08.12.05.21.12.29.2.08.08.14.18.19.29.05.11.09.22.12.33h.02c.04-.1.09-.21.16-.32.06-.11.15-.2.24-.29s.21-.16.34-.21c.13-.06.27-.08.43-.08.24,0,.43.05.58.15.15.1.27.23.35.39.08.16.13.35.16.56.03.21.04.42.04.63v2.78h-.76v-2.79c0-.12,0-.25-.02-.37-.01-.13-.04-.24-.08-.35-.04-.1-.11-.19-.19-.25-.08-.06-.19-.1-.34-.1-.12,0-.24.03-.34.1-.1.07-.19.16-.27.28-.07.12-.13.26-.17.43-.04.17-.06.35-.06.54v2.51h-.74v-2.79c0-.12,0-.25-.02-.37-.01-.13-.04-.24-.08-.35-.04-.1-.11-.19-.19-.25-.08-.06-.2-.1-.34-.1-.12,0-.24.03-.34.1-.1.07-.19.16-.27.28-.07.12-.13.26-.17.43-.04.17-.06.35-.06.54v2.51h-.74v-3.26c0-.17,0-.36,0-.56,0-.2-.01-.38-.03-.54h.72c.02.14.03.29.04.43,0,.14.01.25.01.32h.02c.06-.25.19-.47.38-.64Z"/>
    <path class="cls-1" d="M15.23,50.91v.68h.02c.07-.24.18-.43.34-.59.16-.16.39-.23.7-.23.22,0,.43.06.6.18.18.12.33.28.45.49.12.21.21.46.27.74.06.29.09.6.09.93s-.03.65-.09.93c-.06.28-.15.53-.27.73-.12.2-.27.36-.45.48s-.38.17-.61.17c-.26,0-.48-.07-.66-.22-.18-.15-.3-.33-.36-.56h-.02v2.72h-.75v-6.45h.74ZM15.23,53.09c0,.24.02.46.05.66.04.21.09.38.16.53.07.15.16.27.27.36.11.09.23.13.37.13s.27-.04.38-.13c.1-.09.19-.21.26-.36.07-.15.12-.33.15-.53.03-.21.05-.43.05-.66s-.02-.45-.05-.65c-.03-.21-.08-.38-.15-.53-.07-.15-.15-.27-.26-.36-.1-.09-.23-.13-.38-.13s-.27.04-.38.13c-.11.09-.2.21-.27.36s-.12.33-.16.53c-.04.21-.05.42-.05.65Z"/>
    <path class="cls-1" d="M18.74,55.28v-6.57h.76v6.57h-.76Z"/>
    <path class="cls-1" d="M21.65,49.62c0,.14-.05.26-.14.36-.09.09-.2.14-.33.14s-.25-.05-.34-.14c-.09-.09-.13-.21-.13-.36s.04-.26.13-.35c.09-.1.2-.14.34-.14s.25.05.34.14c.09.1.13.21.13.35ZM20.8,55.28v-4.37h.75v4.37h-.75Z"/>
    <path class="cls-1" d="M24.5,49.22c-.08-.03-.16-.04-.26-.04-.12,0-.22.03-.29.08-.08.06-.14.13-.18.21-.04.09-.08.19-.09.3s-.03.23-.03.35v.79h.73v.6h-.72v3.77h-.74v-3.77h-.58v-.6h.58v-.8c0-.23.02-.43.07-.63.05-.19.12-.36.22-.5.1-.14.23-.25.39-.33.16-.08.34-.12.56-.12.06,0,.13,0,.2.01.07,0,.14.02.19.05l-.05.61Z"/>
    <path class="cls-1" d="M26.44,56.07c-.05.2-.11.38-.18.53-.07.16-.15.3-.25.41-.1.11-.21.2-.35.26-.14.06-.3.09-.48.09-.1,0-.2,0-.29-.02-.09-.01-.17-.03-.23-.05l.1-.67c.11.04.23.06.35.06.17,0,.3-.05.39-.16.09-.1.15-.25.2-.43l.17-.69-1.31-4.5h.8l.88,3.5h.02l.8-3.5h.77l-1.37,5.16Z"/>
    <path class="cls-1" d="M29.43,49.62c0,.14-.05.26-.14.36-.09.09-.2.14-.33.14s-.25-.05-.34-.14c-.09-.09-.13-.21-.13-.36s.04-.26.13-.35c.09-.1.2-.14.34-.14s.25.05.34.14c.09.1.13.21.13.35ZM28.58,55.28v-4.37h.75v4.37h-.75Z"/>
    <path class="cls-1" d="M32.9,55.28v-2.79c0-.12,0-.25-.02-.37-.01-.13-.04-.24-.08-.35-.04-.1-.11-.19-.19-.25-.08-.06-.19-.1-.34-.1-.12,0-.24.03-.35.1s-.2.16-.27.28c-.08.12-.14.26-.18.43-.04.17-.06.35-.06.54v2.51h-.75v-3.26c0-.17,0-.36,0-.56,0-.2-.01-.38-.03-.54h.72c.02.14.03.29.04.43,0,.14.01.25.01.32h.02c.08-.25.22-.47.41-.64.19-.17.43-.26.7-.26.24,0,.43.05.58.15.15.1.27.23.35.39.08.16.13.35.16.56.03.21.04.42.04.63v2.78h-.76Z"/>
    <path class="cls-1" d="M37.14,50.91h.74v4.37c0,.3-.03.57-.08.82-.06.25-.15.47-.28.66s-.31.34-.52.44c-.22.11-.48.16-.79.16s-.59-.06-.86-.19c-.27-.12-.49-.29-.66-.5l.47-.52c.13.16.29.29.47.39.18.1.38.15.6.15.18,0,.33-.04.45-.11.12-.07.21-.17.28-.3.07-.13.12-.28.15-.45.03-.17.04-.36.04-.56v-.69h-.02c-.07.24-.18.44-.34.6-.16.16-.39.24-.7.24-.22,0-.43-.06-.6-.18s-.33-.28-.45-.49c-.12-.21-.21-.46-.27-.74-.06-.29-.09-.6-.09-.94s.03-.64.09-.93c.06-.28.15-.52.27-.73.12-.21.27-.37.45-.48s.38-.17.61-.17c.26,0,.48.07.66.22.18.14.3.33.37.56h.03v-.63ZM37.14,53.09c0-.24-.02-.46-.05-.67-.04-.21-.09-.38-.16-.53-.07-.15-.16-.27-.27-.36-.11-.09-.23-.13-.37-.13s-.27.04-.38.13c-.1.09-.19.21-.26.36-.07.15-.12.33-.15.53-.03.21-.05.43-.05.67s.02.46.05.66c.03.2.08.38.15.53.07.15.15.27.26.36.1.09.23.13.38.13s.27-.04.38-.13c.11-.09.2-.21.27-.36.07-.15.12-.33.16-.53.04-.2.05-.42.05-.66Z"/>
    <path class="cls-1" d="M43.75,55.2c-.25.15-.55.22-.9.22s-.66-.08-.94-.24c-.28-.16-.51-.39-.7-.68-.19-.29-.33-.63-.43-1.02-.1-.39-.15-.82-.15-1.28s.05-.89.16-1.29c.1-.39.25-.73.44-1.02.19-.29.43-.51.7-.67.27-.16.58-.24.93-.24.32,0,.61.06.88.18.27.12.48.31.66.56l-.5.53c-.13-.19-.28-.32-.45-.41-.17-.09-.35-.13-.55-.13-.24,0-.45.07-.63.2-.18.13-.32.31-.44.54-.12.23-.2.49-.26.8-.06.3-.09.63-.09.97s.03.66.09.97c.06.3.15.57.27.8.12.23.27.41.45.54.18.13.39.2.63.2.22,0,.41-.06.58-.17.17-.12.3-.26.4-.43l.48.51c-.16.24-.36.44-.61.59Z"/>
    <path class="cls-1" d="M45.89,50.92v2.78c0,.12,0,.25.02.37.01.13.04.24.08.35.04.1.11.19.19.25.08.06.19.1.34.1.12,0,.24-.03.35-.1.11-.07.2-.16.27-.28.08-.12.14-.26.18-.43.04-.17.06-.35.06-.54v-2.5h.75v3.26c0,.17,0,.36,0,.56,0,.2.01.38.03.54h-.72c-.02-.14-.03-.29-.04-.43,0-.14-.01-.25-.01-.32h-.02c-.08.26-.22.47-.41.64-.19.17-.43.26-.7.26-.24,0-.44-.05-.58-.15-.15-.1-.26-.23-.34-.39s-.13-.35-.16-.55c-.03-.21-.04-.42-.04-.63v-2.78h.76Z"/>
    <path class="cls-1" d="M51.21,51.74c-.08-.11-.18-.2-.3-.27-.12-.07-.26-.11-.43-.11s-.31.06-.43.18c-.11.12-.17.28-.17.48s.06.35.17.44c.12.09.29.18.53.27.12.05.25.1.37.17s.23.15.33.26c.1.1.18.23.23.37.06.14.09.31.09.51,0,.23-.03.43-.1.6-.07.17-.16.32-.28.43s-.26.2-.43.27-.35.09-.54.09c-.27,0-.51-.05-.73-.16-.22-.11-.4-.25-.55-.43l.44-.48c.1.12.22.23.35.32.14.09.3.13.51.13.19,0,.34-.07.45-.2.11-.13.16-.31.16-.52,0-.12-.02-.23-.06-.31-.04-.09-.1-.16-.17-.22-.07-.06-.16-.11-.25-.16-.1-.04-.2-.09-.31-.13-.11-.04-.22-.09-.33-.15-.11-.06-.21-.13-.3-.23-.09-.1-.16-.21-.21-.35-.05-.14-.08-.3-.08-.5s.03-.37.1-.52c.07-.16.16-.29.28-.4.12-.11.26-.2.42-.26.16-.06.33-.09.51-.09.27,0,.49.05.69.13.19.09.35.21.47.35l-.43.49Z"/>
    <path class="cls-1" d="M53.9,55.35c-.11.02-.21.03-.32.03-.34,0-.59-.11-.73-.32-.14-.21-.22-.51-.22-.9v-2.66h-.57v-.6h.56v-1.17h.74v1.17h.79v.6h-.79v2.51c0,.25.04.44.12.55.08.11.19.17.35.17.05,0,.11,0,.17-.02.06-.01.11-.03.15-.04l.02.59c-.07.03-.15.06-.26.09Z"/>
    <path class="cls-1" d="M57.9,53.1c0,.35-.04.66-.11.95-.07.28-.18.53-.32.73-.14.2-.31.36-.51.47-.2.11-.43.17-.68.17s-.47-.06-.67-.17c-.2-.11-.37-.27-.51-.47-.14-.2-.25-.45-.32-.73-.07-.28-.11-.6-.11-.95s.04-.67.11-.96c.07-.29.18-.54.31-.74.14-.2.3-.36.51-.47.2-.11.43-.17.68-.17s.48.06.68.17c.2.11.37.27.51.47.14.2.25.45.32.74.07.29.11.61.11.96ZM57.12,53.1c0-.24-.02-.46-.05-.66-.03-.21-.08-.38-.16-.53-.07-.15-.16-.27-.27-.36-.11-.09-.23-.13-.37-.13s-.27.04-.37.13-.19.21-.26.36c-.07.15-.12.33-.15.53-.03.21-.05.43-.05.66s.02.46.05.66c.03.2.08.38.15.53.07.15.16.27.26.36.11.09.23.13.37.13s.27-.04.38-.13c.11-.09.19-.21.26-.36.07-.15.12-.33.15-.53.03-.2.05-.42.05-.66Z"/>
    <path class="cls-1" d="M60.09,51.02c.19-.17.43-.26.72-.26.16,0,.3.03.41.08.12.05.21.12.29.2.08.08.14.18.19.29.05.11.09.22.12.33h.02c.04-.1.09-.21.16-.32.06-.11.15-.2.24-.29s.21-.16.34-.21c.13-.06.27-.08.43-.08.24,0,.43.05.58.15.15.1.27.23.35.39.08.16.13.35.16.56.03.21.04.42.04.63v2.78h-.76v-2.79c0-.12,0-.25-.02-.37-.01-.13-.04-.24-.08-.35-.04-.1-.11-.19-.19-.25-.08-.06-.2-.1-.34-.1-.12,0-.24.03-.34.1-.1.07-.19.16-.27.28-.07.12-.13.26-.17.43-.04.17-.06.35-.06.54v2.51h-.74v-2.79c0-.12,0-.25-.02-.37-.01-.13-.04-.24-.08-.35-.04-.1-.11-.19-.19-.25-.08-.06-.19-.1-.34-.1-.12,0-.24.03-.34.1s-.19.16-.27.28c-.07.12-.13.26-.17.43-.04.17-.06.35-.06.54v2.51h-.74v-3.26c0-.17,0-.36,0-.56,0-.2-.01-.38-.03-.54h.72c.02.14.03.29.04.43,0,.14.01.25.01.32h.02c.06-.25.19-.47.38-.64Z"/>
    <path class="cls-1" d="M65.92,53.29c0,.21.02.41.06.59.04.18.09.34.17.47.07.13.17.24.28.31s.24.11.39.11c.2,0,.36-.06.48-.18.12-.12.21-.27.28-.43l.57.32c-.12.28-.29.5-.51.68-.22.18-.5.27-.85.27-.51,0-.91-.2-1.2-.61-.29-.41-.43-.98-.43-1.71,0-.35.04-.67.12-.95s.19-.53.33-.74c.14-.21.31-.37.51-.48s.42-.17.66-.17c.27,0,.5.06.69.17.19.11.34.27.47.46.12.19.21.42.26.69.05.26.08.55.08.85v.36h-2.36ZM67.51,52.69c0-.38-.06-.69-.18-.92s-.31-.35-.57-.35c-.15,0-.28.04-.39.13-.1.09-.19.2-.25.33-.07.13-.11.27-.14.41-.03.15-.04.28-.04.39h1.58Z"/>
    <path class="cls-1" d="M70.44,51.02c.17-.17.37-.25.59-.25.05,0,.08,0,.11,0l-.04.77s-.05-.01-.07-.01c-.02,0-.05,0-.08,0-.14,0-.27.05-.38.13-.11.09-.2.21-.27.35-.07.14-.13.31-.17.49-.04.18-.06.37-.06.56v2.21h-.76v-3.26c0-.17,0-.36,0-.56,0-.2-.01-.38-.03-.54h.72c.02.14.03.3.04.45s.01.31.01.45h.02c.08-.37.2-.63.37-.8Z"/>
    <path class="cls-1" d="M76.38,53.64c0,.28-.04.53-.13.75-.09.22-.21.41-.36.56-.15.15-.33.27-.54.35s-.43.12-.66.12c-.32,0-.62-.07-.91-.2-.29-.13-.52-.3-.69-.52l.47-.57c.14.17.31.31.51.41.2.1.41.15.62.15.27,0,.48-.09.66-.26.17-.17.26-.43.26-.76,0-.16-.03-.29-.08-.41-.05-.12-.13-.23-.22-.32-.09-.1-.2-.18-.32-.26-.12-.08-.25-.15-.39-.22-.17-.08-.33-.17-.48-.27-.15-.1-.29-.22-.4-.35-.12-.13-.21-.29-.28-.47-.07-.18-.1-.4-.1-.65,0-.3.05-.55.14-.77.09-.22.22-.4.38-.55.16-.14.34-.25.54-.32.2-.07.4-.1.61-.1.3,0,.57.05.81.15.24.1.44.25.6.44l-.48.56c-.22-.29-.53-.43-.9-.43-.11,0-.22.02-.33.06-.11.04-.21.1-.3.18-.09.08-.16.19-.21.32-.05.13-.08.28-.08.46,0,.16.02.29.08.4.05.11.12.21.2.3.09.09.18.17.3.24.11.07.23.14.36.2.17.08.33.17.49.27s.3.22.43.36c.13.14.23.3.31.49.08.19.12.41.12.66Z"/>
    <path class="cls-1" d="M78.13,50.92v2.78c0,.12,0,.25.02.37.01.13.04.24.08.35.04.1.11.19.19.25.08.06.2.1.34.1.12,0,.24-.03.35-.1.11-.07.2-.16.27-.28.08-.12.14-.26.18-.43.04-.17.06-.35.06-.54v-2.5h.75v3.26c0,.17,0,.36,0,.56,0,.2.01.38.03.54h-.72c-.02-.14-.03-.29-.04-.43,0-.14-.01-.25-.01-.32h-.02c-.08.26-.22.47-.41.64-.19.17-.43.26-.7.26-.24,0-.44-.05-.58-.15-.15-.1-.26-.23-.34-.39-.08-.16-.13-.35-.16-.55-.03-.21-.04-.42-.04-.63v-2.78h.76Z"/>
    <path class="cls-1" d="M82.42,50.91v.68h.02c.07-.24.18-.43.34-.59s.39-.23.7-.23c.22,0,.43.06.6.18.18.12.33.28.45.49.12.21.21.46.27.74.06.29.09.6.09.93s-.03.65-.09.93c-.06.28-.15.53-.27.73-.12.2-.27.36-.45.48s-.38.17-.61.17c-.26,0-.48-.07-.66-.22-.18-.15-.3-.33-.36-.56h-.02v2.72h-.75v-6.45h.74ZM82.42,53.09c0,.24.02.46.05.66.04.21.09.38.16.53.07.15.16.27.27.36.11.09.23.13.37.13s.27-.04.38-.13c.1-.09.19-.21.26-.36.07-.15.12-.33.15-.53.03-.21.05-.43.05-.66s-.02-.45-.05-.65c-.03-.21-.08-.38-.15-.53s-.15-.27-.26-.36c-.1-.09-.23-.13-.38-.13s-.27.04-.38.13c-.11.09-.2.21-.27.36-.07.15-.12.33-.16.53-.04.21-.05.42-.05.65Z"/>
    <path class="cls-1" d="M86.67,50.91v.68h.02c.07-.24.18-.43.34-.59s.39-.23.7-.23c.22,0,.43.06.6.18.18.12.33.28.45.49.12.21.21.46.27.74.06.29.09.6.09.93s-.03.65-.09.93c-.06.28-.15.53-.27.73-.12.2-.27.36-.45.48s-.38.17-.61.17c-.26,0-.48-.07-.66-.22-.18-.15-.3-.33-.36-.56h-.02v2.72h-.75v-6.45h.74ZM86.67,53.09c0,.24.02.46.05.66.04.21.09.38.16.53.07.15.16.27.27.36.11.09.23.13.37.13s.27-.04.38-.13c.1-.09.19-.21.26-.36.07-.15.12-.33.15-.53.03-.21.05-.43.05-.66s-.02-.45-.05-.65c-.03-.21-.08-.38-.15-.53s-.15-.27-.26-.36c-.1-.09-.23-.13-.38-.13s-.27.04-.38.13c-.11.09-.2.21-.27.36-.07.15-.12.33-.16.53-.04.21-.05.42-.05.65Z"/>
    <path class="cls-1" d="M93.18,53.1c0,.35-.04.66-.11.95-.07.28-.18.53-.32.73-.14.2-.31.36-.51.47-.2.11-.43.17-.68.17s-.47-.06-.67-.17c-.2-.11-.37-.27-.51-.47-.14-.2-.25-.45-.32-.73-.07-.28-.11-.6-.11-.95s.04-.67.11-.96c.07-.29.18-.54.31-.74.14-.2.3-.36.51-.47.2-.11.43-.17.68-.17s.48.06.68.17c.2.11.37.27.51.47.14.2.25.45.32.74.07.29.11.61.11.96ZM92.4,53.1c0-.24-.02-.46-.05-.66-.03-.21-.08-.38-.16-.53-.07-.15-.16-.27-.27-.36-.11-.09-.23-.13-.37-.13s-.27.04-.37.13c-.11.09-.19.21-.26.36-.07.15-.12.33-.15.53-.03.21-.05.43-.05.66s.02.46.05.66c.03.2.08.38.15.53.07.15.16.27.26.36.11.09.23.13.37.13s.27-.04.38-.13c.11-.09.19-.21.26-.36.07-.15.12-.33.15-.53.03-.2.05-.42.05-.66Z"/>
    <path class="cls-1" d="M95.36,51.02c.17-.17.37-.25.59-.25.05,0,.08,0,.11,0l-.04.77s-.05-.01-.07-.01c-.02,0-.05,0-.08,0-.14,0-.27.05-.38.13-.11.09-.2.21-.27.35-.07.14-.13.31-.17.49-.04.18-.06.37-.06.56v2.21h-.76v-3.26c0-.17,0-.36,0-.56,0-.2-.01-.38-.03-.54h.72c.02.14.03.3.04.45s.01.31.01.45h.02c.08-.37.2-.63.37-.8Z"/>
    <path class="cls-1" d="M98.08,55.35c-.11.02-.21.03-.32.03-.34,0-.59-.11-.73-.32-.14-.21-.22-.51-.22-.9v-2.66h-.57v-.6h.56v-1.17h.74v1.17h.79v.6h-.79v2.51c0,.25.04.44.12.55.08.11.19.17.35.17.05,0,.11,0,.17-.02.06-.01.11-.03.15-.04l.02.59c-.07.03-.15.06-.26.09Z"/>
  </g>
</svg>