<?xml version="1.0" encoding="UTF-8"?>
<svg id="Layer_2" data-name="Layer 2" xmlns="http://www.w3.org/2000/svg" viewBox="0 0 45.83 48.04">
  <g id="Layer_1-2" data-name="Layer 1">
    <path d="M22.66,0c1.85-.21,4.76,3.66,6.41,4.6,2.6.59,7.59-1.95,8.79,1.28.54,1.46.85,5.11,1.48,6.12.58.93,4.56,2.57,5.66,3.59.95.88.94,1.5.61,2.66-.41,1.4-2.27,4.58-2.35,5.67-.1,1.56,2.91,5.49,2.53,7.23-.42,1.92-5.06,3.47-6.45,4.86-.7,1.51-1.02,6.93-2.51,7.56-1.84.79-5.72-.58-7.77-.16l-4.72,4.11c-.32.21-.97.5-1.34.51-1.71.06-4.68-3.74-6.24-4.62-2.6-.59-7.59,1.95-8.79-1.28-.54-1.46-.85-5.11-1.48-6.12-.58-.93-4.56-2.57-5.66-3.59-.95-.88-.94-1.5-.61-2.66.41-1.4,2.27-4.58,2.35-5.67.1-1.56-2.91-5.49-2.53-7.23.42-1.92,5.06-3.47,6.45-4.86.7-1.51,1.02-6.93,2.51-7.56,1.84-.79,5.72.58,7.77.16L21.49.49c.29-.19.85-.45,1.18-.49ZM36.23,42.05c.65-1.73.84-5.92,1.92-7.22.89-1.08,5.84-3.16,6.04-4.01.25-1.1-3.03-5.46-2.48-7.63.32-1.23,2.5-4.98,2.5-5.85,0-.31-.25-.51-.47-.69-1.23-1.04-4.89-2.42-5.72-3.53-1-1.34-1-5.95-1.95-7.1-.09-.11-.19-.22-.34-.25-1.8.13-3.74.49-5.53.57-.52.02-1.04.06-1.55-.09-1.33-.4-4.8-4.51-5.67-4.59-.68-.06-4.06,3.45-4.9,4.07-.79.58-1.29.67-2.27.63-1.99-.08-4.12-.63-6.13-.44-.44.33-1.05,6.13-2.01,7.29-.89,1.08-5.84,3.16-6.04,4.01-.25,1.1,3.03,5.46,2.48,7.63-.33,1.27-2.5,4.9-2.5,5.85,0,.31.25.51.47.69,1.23,1.04,4.89,2.42,5.72,3.53,1,1.34,1,5.95,1.95,7.1.09.11.19.22.34.25,1.8-.13,3.74-.49,5.53-.57.52-.02,1.04-.06,1.55.09,1.33.4,4.8,4.51,5.67,4.59.68.06,4.06-3.45,4.9-4.07.89-.66,1.39-.65,2.46-.61.89.03,5.72.79,6.02.36Z"/>
    <path d="M32.1,18.49c.67-.19,1.25.37,1.06,1.06l-12.1,12.17c-.22.12-.46.15-.7.11-.77-.11-4.19-4.25-5.15-4.94-.43-.93.17-1.56,1.12-1.12.68.31,3.92,4.21,4.22,4.21l11.55-11.47Z"/>
  </g>
</svg>