<?xml version="1.0" encoding="UTF-8"?>
<svg id="Layer_2" data-name="Layer 2" xmlns="http://www.w3.org/2000/svg" viewBox="0 0 53.15 57.96">
  <defs>
    <style>
      .cls-1 {
        fill: #3aa7d9;
      }
    </style>
  </defs>
  <g id="Layer_2-2" data-name="Layer 2">
    <path class="cls-1" d="M27.15,4.47l-10.48-2.85c-2.21-.5-4.51.51-5.7,2.5l-1.29-.77C11.2.8,14.16-.48,17.03.17l10.51,2.85-.39,1.45Z"/>
    <path class="cls-1" d="M4.04,52.46c-2.95-1.34-4.58-4.62-3.88-7.8l3.49-15.84,1.46.32-3.49,15.84c-.55,2.49.73,5.06,3.03,6.11l-.62,1.37Z"/>
    <path class="cls-1" d="M32.36,57.96c-.5,0-.99-.05-1.49-.17l-4.39-.99.33-1.46,4.39.99c1.57.35,3.2-.03,4.48-1.05l.94,1.17c-1.23.99-2.73,1.51-4.26,1.51Z"/>
    <path class="cls-1" d="M44.84,26.2l-1.46-.32,2.67-12.11c.55-2.49-.73-5.06-3.03-6.11l.62-1.37c2.95,1.34,4.58,4.62,3.88,7.8l-2.67,12.11Z"/>
    <path class="cls-1" d="M38.02,56.61H10.44c-3.77,0-6.84-3.07-6.84-6.84V9.83c0-3.77,3.07-6.84,6.84-6.84h27.58c3.77,0,6.84,3.07,6.84,6.84v21.14h-1.5V9.83c0-2.94-2.4-5.34-5.34-5.34H10.44c-2.94,0-5.34,2.4-5.34,5.34v39.94c0,2.94,2.39,5.34,5.34,5.34h27.58c2.94,0,5.34-2.4,5.34-5.34l.19-12.23,1.5.02-.19,12.22c0,3.76-3.07,6.83-6.84,6.83Z"/>
    <g>
      <g>
        <path class="cls-1" d="M16.62,21.61H7.85v-8.85h8.77v8.85ZM8.85,20.61h6.77v-6.85h-6.77v6.85Z"/>
        <polygon class="cls-1" points="11.56 19.3 9.49 17.34 10.18 16.61 11.57 17.93 14.29 15.4 14.98 16.13 11.56 19.3"/>
      </g>
      <g>
        <rect class="cls-1" x="18.33" y="12.81" width="20.52" height="1.54" rx=".73" ry=".73"/>
        <rect class="cls-1" x="18.33" y="18.52" width="12.09" height="1.54" rx=".73" ry=".73"/>
      </g>
    </g>
    <g>
      <g>
        <path class="cls-1" d="M16.62,35.51H7.85v-8.85h8.77v8.85ZM8.85,34.51h6.77v-6.85h-6.77v6.85Z"/>
        <polygon class="cls-1" points="11.56 33.2 9.49 31.24 10.18 30.51 11.57 31.83 14.29 29.29 14.98 30.03 11.56 33.2"/>
      </g>
      <g>
        <rect class="cls-1" x="18.33" y="26.6" width="20.52" height="1.54" rx=".73" ry=".73"/>
        <rect class="cls-1" x="18.33" y="32.31" width="12.09" height="1.54" rx=".73" ry=".73"/>
      </g>
    </g>
    <g>
      <g>
        <rect class="cls-1" x="18.33" y="40.38" width="16.94" height="1.54" rx=".73" ry=".73"/>
        <rect class="cls-1" x="18.33" y="46.09" width="9.98" height="1.54" rx=".73" ry=".73"/>
      </g>
      <g>
        <path class="cls-1" d="M16.62,48.43H7.85v-8.85h8.77v8.85ZM8.85,47.43h6.77v-6.85h-6.77v6.85Z"/>
        <polygon class="cls-1" points="11.56 46.11 9.49 44.15 10.18 43.43 11.57 44.74 14.3 42.21 14.97 42.94 11.56 46.11"/>
      </g>
    </g>
    <g>
      <path class="cls-1" d="M32.25,47.25l-.49-.44c-.27-.27-.38-.67-.27-1.05l1.15-4.34.26-.29,13.02-13.16,4.49,4.54-13.3,13.41-4.86,1.32ZM34.44,42.42l-.62,2.33,2.28-.62,11.49-11.61-1.68-1.7-11.48,11.6Z"/>
      <path class="cls-1" d="M49.92,32.92l-4.43-4.48,2.84-2.87c.5-.5,1.37-.5,1.87,0l2.58,2.6c.51.51.51,1.34,0,1.86l-2.85,2.88ZM48.3,28.44l1.62,1.64.96-.97-1.62-1.64-.96.97Z"/>
    </g>
  </g>
</svg>