<?xml version="1.0" encoding="UTF-8"?>
<svg id="Layer_2" data-name="Layer 2" xmlns="http://www.w3.org/2000/svg" viewBox="0 0 11.32 13.09">
  <g id="Layer_3" data-name="Layer 3">
    <path d="M6.67,1.5c.05.03.15.07.22.1.02.01.06.02.08.03,0,.04.02.02.04.03,0,0,.09.05.09.05,0,0,0,.02,0,.02,0,0,.06.02.07.03,0,0,0,.02,0,.02,0,0,.08.04.1.06.05.05.13.11.19.16.12.11.21.22.3.34.04.05.1.11.12.16.02.03.04.06.06.11,0,0,.02,0,.02.02s0,.03,0,.04c0,0,.02,0,.02,0s0,.02,0,.03c.05.1.09.18.13.27.02.04.01.03.02.07,0,0,.02,0,.02.02.01.04.02.09.03.13,0,0,.02,0,.02.02,0,.02,0,.05,0,.07,0,0,.02,0,.02.02,0,.03,0,.06,0,.08,0,.01.02.02.02.04,0,.03,0,.06,0,.08,0,.02.02.03.02.05,0,.04,0,.09,0,.14,0,.02.02.04.03.07,0,.06,0,.41,0,.46-.03.09,0,.11-.02.18,0,.02-.02.03-.02.05,0,.03,0,.06,0,.08,0,.02-.02.02-.02.04,0,.03-.01.06-.03.1,0,.02,0,.05,0,.07,0,.01-.02.01-.02.02,0,.02,0,.04,0,.06,0,.01-.02.01-.02.02,0,.02,0,.04,0,.06,0,.01-.02.01-.02.02,0,.04-.02.04-.02.07-.03.08-.07.18-.11.25-.13.23-.29.46-.47.64-.17.17-.35.3-.57.42,0,0-.06.05-.07.05-.01,0-.03,0-.04,0,0,0,0,.02,0,.02,0,0-.04,0-.05,0,0,0,.01.03-.03.03v.94c-.03.06-.01.17-.03.21-.01.02-.03.08-.04.11-.01.04-.02.07-.03.11,0,0-.05.08-.06.1-.09.16-.25.32-.41.41-.01,0-.04,0-.04,0,0,0,0,.02,0,.02,0,0-.03,0-.04,0,0,0,0,.02-.01.02-.03.02-.08.02-.11.03,0,0,0,.02-.03.03s-.05,0-.07,0c-.01,0-.02.02-.04.02-.02,0-.24.02-.25.02,0,0,0-.02-.02-.02-.05,0-.12,0-.16,0-.02,0-.02-.02-.04-.02-.02,0-.05,0-.07,0-.01,0-.01-.02-.02-.02-.17-.05-.4-.18-.52-.34-.03-.04-.08-.11-.1-.15-.09-.16-.13-.33-.16-.52v-.95s-.03-.03-.03-.03c-.01,0-.04,0-.04,0,0,0,0-.02,0-.02,0,0-.03,0-.04,0,0,0-.06-.04-.07-.05-.25-.14-.44-.29-.63-.49-.13-.14-.27-.32-.36-.51,0,0-.02,0-.02-.02s0-.03,0-.04c0,0-.02,0-.02,0,0,0,0-.03,0-.04s-.02-.01-.02-.02c0-.01,0-.03,0-.04-.04-.07-.07-.14-.1-.23,0,0-.02,0-.02-.02,0-.02,0-.04,0-.06,0,0-.02,0-.02-.02,0-.02,0-.04,0-.06,0,0-.02,0-.02-.02,0-.02,0-.04,0-.07,0-.03-.04-.11-.05-.14,0-.03,0-.06,0-.08,0-.02-.02-.03-.02-.05,0-.04,0-.09,0-.14,0-.02-.02-.04-.03-.07,0-.07-.01-.39,0-.46.02-.08.01-.11.02-.18,0-.02.02-.03.02-.05,0-.03,0-.06,0-.08,0-.02.02-.02.02-.04.01-.04.01-.13.03-.17,0-.01.02-.01.02-.02,0-.02,0-.04,0-.06s.05-.09.05-.1c0-.04,0-.03.02-.07.04-.09.08-.17.13-.27,0-.01,0-.03,0-.03s.02,0,.02,0c0,0,0-.03,0-.04,0,0,.04-.05.05-.06.02-.05,0-.01.03-.03,0,0,.02-.06.03-.07,0,0,.02,0,.02,0s.03-.05.05-.08c.11-.14.21-.27.36-.4.04-.04.11-.09.15-.13.02-.02.09-.05.1-.06.01-.01,0-.02.04-.04.03-.02.06-.04.11-.06,0,0,0-.02.02-.02.02,0,.04.01.04-.03.02,0,.06-.02.08-.03.03-.02.09-.06.13-.07.11-.03.22-.09.33-.13.02,0,.05,0,.06,0,0,0,0-.02.02-.02.02,0,.05,0,.08,0,.02,0,.02-.02.04-.03.03,0,.07,0,.09,0,.01,0,.02-.02.04-.02.04,0,.1,0,.14,0,.02,0,.04-.02.07-.03.08,0,.43-.01.5,0,.08.02.12,0,.18.02.02,0,.02.02.04.02.03,0,.06,0,.09,0,.02,0,.02.02.04.02.04.01.13.02.17.03.06.02.18.07.24.1ZM4.88,6.21v.4h.62v-.68s-.04-.02-.06-.02c-.28-.1-.35-.22-.47-.45-.02-.03,0-.06,0-.08,0,0-.02,0-.03-.03,0-.02,0-.17,0-.19,0-.01.02-.01.02-.02,0-.01,0-.03.01-.04,0,0,.09-.06.1-.06.02,0,.07,0,.08,0,0,0,0,.02.01.02s.02,0,.04,0c0,0,0,.01.01.02,0,0,.02,0,.02,0s0,.02,0,.02c.03.04.01.02.02.06,0,.01.02.01.02.02,0,.03,0,.1,0,.13,0,.02.03.07.04.08.02.04.04.07.06.09.03.03.16.08.19.1.02,0,.12,0,.14,0,.01,0,.08-.04.1-.04.06-.03.1-.05.14-.09.02-.02.05-.09.06-.12,0-.01.02-.02.02-.03,0-.03,0-.08,0-.12,0-.03.03-.07.05-.09,0,0,0-.02,0-.02.02-.02.06-.02.07-.03,0,0,0-.02.02-.02.04-.02.15.03.17.06,0,0,0,.02,0,.03,0,.01.02,0,.03.03,0,.03,0,.17,0,.19,0,0-.02,0-.02.01,0,.02,0,.04,0,.06,0,.01-.09.18-.1.2,0,0-.02.02-.03.04-.11.13-.2.17-.34.23-.02,0-.03.03-.06.02v.68h.62v-.4s.02,0,.02-.01c0,0,0-.03,0-.04,0-.02.1-.07.12-.08.05-.02.11-.04.15-.06.28-.16.61-.43.79-.69.05-.07.11-.17.15-.24,0-.01,0-.03,0-.03s.02,0,.02,0c0,0,0-.04,0-.05,0,0,.02,0,.02,0,0,0,0-.03,0-.04,0,0,.02,0,.02-.02.02-.05.04-.11.05-.16.01-.05.07-.14.07-.19,0-.02,0-.04,0-.06,0-.01.02-.01.02-.02,0-.03,0-.06,0-.1,0-.02.02-.02.02-.02,0-.04,0-.09,0-.13,0-.02.02-.02.03-.05,0-.07.01-.45,0-.52,0-.02-.02-.03-.02-.04,0-.04,0-.08,0-.12,0-.02-.02-.02-.03-.04,0-.02,0-.05,0-.07,0-.02-.02-.02-.03-.04,0-.02,0-.05,0-.07,0,0-.02,0-.02-.02,0-.02,0-.04,0-.06,0,0-.02,0-.02-.02,0-.02,0-.04,0-.06,0,0-.02,0-.02-.02-.02-.07-.05-.16-.08-.21,0,0-.05-.06-.05-.07,0-.01,0-.03,0-.04,0,0-.02,0-.02,0s0-.02,0-.03c0-.02-.04-.05-.04-.06,0-.01,0-.03,0-.04,0,0,0,0-.03-.02-.05-.06-.11-.15-.15-.2-.13-.15-.28-.29-.44-.41-.01,0-.06-.03-.07-.03,0,0,0-.02,0-.02,0,0-.03,0-.04,0,0,0-.04-.04-.06-.04-.01,0-.03,0-.03,0s0-.02,0-.02c0,0-.03,0-.04,0s-.01-.02-.02-.02c-.05-.03-.14-.06-.2-.08-.02,0-.08-.05-.09-.05-.01,0-.03,0-.05,0-.01,0-.02-.02-.04-.02-.02,0-.04,0-.05,0-.01,0-.01-.02-.02-.02-.02,0-.05,0-.07,0-.02,0-.02-.02-.02-.02-.02,0-.06,0-.08,0-.01,0-.02-.02-.04-.02-.03,0-.08,0-.11,0-.02,0-.03-.02-.04-.02-.05-.01-.52-.01-.58,0-.03,0-.03.02-.05.03-.03,0-.07,0-.1,0-.05,0-.11.04-.16.05-.07.02-.14.03-.21.05-.1.04-.2.09-.31.15-.02,0-.04.03-.05.03-.01,0-.03,0-.04,0,0,0,0,.02,0,.02,0,0-.02,0-.03,0-.05.02-.2.14-.25.18-.23.18-.4.39-.54.65-.04.08-.12.2-.15.29-.02.06-.04.12-.05.18,0,.01-.02.02-.02.03,0,.02,0,.05,0,.07,0,.02-.02.01-.02.02,0,.03,0,.07,0,.09,0,.01-.02.01-.02.02,0,.03,0,.09,0,.13,0,.02-.02.02-.03.05,0,.06,0,.5,0,.54,0,.01.02.02.02.05,0,.04,0,.1,0,.13,0,0,.02,0,.02.02,0,.02,0,.05,0,.08,0,.02.02.02.03.04,0,.02,0,.05,0,.07,0,0,.02,0,.02.02,0,.02,0,.04,0,.06,0,0,.02,0,.02.02,0,.02,0,.04,0,.06,0,0,.02,0,.02.02.02.07.05.16.08.21,0,0,.05.06.05.07,0,.01,0,.03,0,.04,0,0,.02,0,.02,0s0,.02,0,.03c0,.02.04.05.04.06,0,.01,0,.03,0,.04,0,0,0,0,.03.02.15.2.29.36.48.52.15.12.35.26.51.31.02,0,.12.07.13.08,0,.01,0,.03,0,.04,0,0,.02,0,.02.01ZM6.44,6.96h-1.57v.44s.02.02.02.03c0,.02,0,.05,0,.07,0,.03.04.1.05.13,0,.01.02,0,.02.02.03.09.16.23.24.27,0,0,.04.02.04.02,0,0,0,.02,0,.02,0,0,.03,0,.04,0s.01.02.02.02c.01,0,.03,0,.04,0,0,0,0,.02.01.02.02,0,.04,0,.06,0,.01,0,.01.02.02.02.02,0,.06,0,.09,0,.02,0,.02.02.04.03.02,0,.15,0,.17,0,.01,0,.02-.02.05-.02.03,0,.06,0,.08,0,0,0,0-.02.02-.02.02,0,.04,0,.06,0,0,0,0-.02.01-.02.01,0,.03,0,.04,0,0,0,0-.02.02-.02s.03,0,.04,0c0,0,0-.02,0-.02,0,0,.03-.02.04-.02.11-.06.23-.21.26-.32,0-.01.02-.01.02-.02,0-.01,0-.03,0-.05,0-.01.02-.02.02-.04,0-.02,0-.04,0-.07,0-.02.02-.03.02-.04v-.43Z"/>
    <path d="M4.09,6.68s.04.06.05.08c.01.04-.03.14-.06.16-.01.01-.03,0-.04.01,0,0,0,.02-.02.02-.04.02-.07.02-.11.03,0,0,0,.02-.02.02-.06.02-.12.03-.18.05-.04.01-.03.01-.08.02,0,0,0,.02-.02.02-.06.02-.12.04-.18.05,0,0,0,.02-.02.02-.06.02-.12.03-.18.05-.04.01-.03.01-.08.02,0,0,0,.02-.02.02-.06.02-.12.04-.18.05,0,0,0,.02-.02.02-.06.02-.12.04-.18.05,0,0,0,.02-.02.02-.02,0-.04,0-.06,0,0,0,0,.02-.02.02-.06.02-.12.04-.18.05,0,0,0,.02-.02.02-.06.02-.12.04-.18.05,0,0,0,.02-.02.02-.02,0-.04,0-.06,0,0,0,0,.02-.02.02-.06.02-.12.04-.18.05,0,0,0,.02-.02.02-.06.02-.12.04-.18.05,0,0,0,.02-.02.02-.06.02-.12.03-.18.05-.04.01-.03.01-.08.02,0,0,0,.02-.02.02-.01,0-.03,0-.05,0-.01,0-.01.02-.02.02-.02,0-.1.02-.12.03,0,0,0,.02-.02.02-.06.02-.12.03-.18.05-.04.01-.03.01-.08.02,0,0,0,.02-.02.02-.06.02-.12.04-.18.05,0,0,0,.02-.02.02-.05.02-.08.02-.13.04-.07.03-.08.03-.12.1,0,.01-.04.06-.04.07s0,.03,0,.05c0,.01-.02.01-.02.02,0,.02,0,.04,0,.06,0,.01-.02.02-.02.04,0,.02,0,.05,0,.07,0,.01-.02.02-.02.04,0,.03,0,.06,0,.09,0,.02-.02.03-.02.04,0,.04,0,.1,0,.14,0,.02-.02.03-.03.06-.02.14-.02.61,0,.75,0,.03.02.04.03.06,0,.04,0,.1,0,.14,0,.02.02.01.02.04,0,.03,0,.07,0,.1,0,.02.02.02.02.04,0,.02,0,.05,0,.07,0,.04.06.14.07.18.02.05.03.07.05.11.03.05.07.06.12.09.01,0,.03,0,.03,0s0,.02,0,.02c0,0,.03,0,.04,0s.01.02.02.02c.06.04.16.07.23.11.19.1.35.19.55.3.02,0,.04.03.05.03.01,0,.03,0,.04,0,0,0,0,.02,0,.02,0,0,.03,0,.04,0,0,0,.07.05.07.05.08.03.16.08.24.12.02,0,.04.03.05.03.01,0,.03,0,.04,0,0,0,0,.02,0,.02,0,0,.03,0,.04,0,0,0,.07.05.07.05.08.03.16.08.24.12.02,0,.04.03.05.03.01,0,.03,0,.04,0,0,0,0,.02,0,.02,0,0,.03,0,.04,0,0,0,.06.04.07.05.07.04.19.09.28.13,0,0,0,.02.02.02s.03,0,.04,0c0,0,0,.02,0,.02,0,0,.03,0,.04,0,0,0,.06.04.07.05.07.04.19.09.28.13,0,0,0,.02.02.02s.03,0,.04,0c0,0,0,.02,0,.02,0,0,.03,0,.04,0,0,0,.06.04.07.05.07.04.19.09.28.13,0,0,0,.02.02.02s.03,0,.04,0c0,0,0,.02,0,.02,0,0,.03,0,.04,0,0,0,.06.04.07.05.07.04.19.09.28.13,0,0,0,.02.02.02s.03,0,.04,0c0,0,0,.02,0,.02,0,0,.03,0,.04,0,0,0,.02.01.05.03.07.02.22.13.31.17.01,0,.03,0,.03,0s0,.02,0,.02c0,0,.03,0,.04,0s.01.02.02.02c.01,0,.03,0,.04,0,0,0,0,.02.01.02.07.02.09.01.15,0,.04,0,.08-.02.13-.03,0,0,0-.02.02-.02.02,0,.04,0,.06,0,0,0,0-.02.02-.02.06-.02.12-.04.18-.05,0,0,0-.02.02-.02.02,0,.04,0,.06,0,0,0,0-.02.02-.02.06-.02.12-.04.18-.05,0,0,0-.02.02-.02.02,0,.04,0,.06,0,0,0,.03-.02.06-.03.05-.02.12-.06.17-.07.04-.01.07-.02.11-.03.05-.02.12-.06.17-.07.04-.01.07-.02.11-.03.05-.02.12-.06.17-.07.04-.01.07-.02.11-.03.05-.02.12-.06.17-.07.04-.01.07-.02.11-.03.05-.02.12-.06.17-.07.04-.01.07-.02.11-.03.05-.02.12-.06.17-.07.04-.01.07-.02.11-.03.05-.02.12-.06.17-.07.04-.01.07-.02.11-.03.05-.02.12-.06.17-.07.04-.01.07-.02.11-.03.05-.02.12-.06.17-.07.02,0,.03,0,.05,0,0,0,0-.02.02-.02.06-.02.12-.03.18-.05.04-.01.03-.01.08-.02,0,0,0-.02.02-.02.06-.02.12-.03.18-.05.04-.01.03-.01.08-.02,0,0,0-.02.02-.02.02,0,.04,0,.06,0,0,0,0-.02.02-.02.06-.02.12-.04.18-.05,0,0,0-.02.02-.02.02,0,.04,0,.06,0,0,0,0-.02.02-.02.06-.02.12-.04.18-.05,0,0,0-.02.02-.02.02,0,.04,0,.06,0,0,0,0-.02.02-.02.06-.02.12-.04.18-.05,0,0,0-.02.02-.02.02,0,.04,0,.06,0,0,0,0-.02.02-.02.06-.02.12-.04.18-.05,0,0,0-.02.02-.02.02,0,.04,0,.06,0,0,0,0-.02.02-.02.06-.02.12-.04.18-.05,0,0,0-.02.02-.02.06-.02.12-.03.18-.05.04-.01.03-.01.08-.02,0,0,0-.02.02-.02.02,0,.04,0,.06,0,0,0,0-.02.02-.02.06-.02.12-.04.18-.05,0,0,0-.02.02-.02.02,0,.04,0,.06,0,0,0,0-.02.02-.02.01,0,.03,0,.05,0,.01,0,.07-.04.07-.06v-1.3s.03-.08.05-.1c0,0,.02,0,.02,0,0,0,0-.02,0-.02,0,0,.03,0,.04,0,0,0,0-.02.02-.02.08-.03.18.06.21.13v1.35c-.03.1-.07.2-.16.27-.06.05-.12.07-.19.08,0,0,0,.02-.02.02-.02,0-.04,0-.06,0,0,0,0,.02-.02.02-.06.02-.12.04-.18.05,0,0,0,.02-.02.02-.02,0-.04,0-.06,0,0,0,0,.02-.02.02-.06.02-.12.04-.18.05,0,0,0,.02-.02.02-.02,0-.04,0-.06,0,0,0,0,.02-.02.02-.03,0-.05.02-.08.03-.06.02-.12.04-.18.05,0,0,0,.02-.02.02-.06.02-.12.03-.18.05-.04.01-.04.01-.08.02,0,0,0,.02-.02.02-.06.02-.12.03-.18.05-.04.01-.03.01-.08.02,0,0,0,.02-.02.02-.06.02-.12.03-.18.05-.04.01-.03.01-.08.02,0,0,0,.02-.02.02-.06.02-.12.03-.18.05-.04.01-.03.01-.08.02,0,0,0,.02-.02.02-.06.02-.12.03-.18.05-.04.01-.03.01-.08.02,0,0,0,.02-.02.02-.06.02-.12.03-.18.05-.04.01-.03.01-.08.02,0,0,0,.02-.02.02-.06.02-.12.03-.18.05-.04.01-.03.01-.08.02,0,0,0,.02-.02.02-.06.02-.12.03-.18.05-.04.01-.03.01-.08.02,0,0,0,.02-.02.02-.06.02-.12.03-.18.05-.04.01-.03.01-.08.02,0,0,0,.02-.02.02-.06.02-.12.03-.18.05-.04.01-.03.01-.08.02,0,0,0,.02-.02.02-.02,0-.04,0-.06,0,0,0,0,.02-.02.02-.06.02-.12.04-.18.05,0,0,0,.02-.02.02-.02,0-.04,0-.06,0,0,0,0,.02-.02.02-.06.02-.12.04-.18.05,0,0,0,.02-.02.02-.02,0-.04,0-.06,0,0,0,0,.02-.02.02-.06.02-.12.04-.18.05,0,0,0,.02-.02.02-.02,0-.04,0-.06,0,0,0,0,.02-.02.02-.06.02-.12.04-.18.05,0,0,0,.02-.02.02-.02,0-.04,0-.06,0,0,0,0,.02-.02.02-.06.02-.12.04-.18.05,0,0,0,.02-.02.02-.02,0-.04,0-.06,0,0,0,0,.02-.02.02-.01,0-.03,0-.05,0-.01,0-.01.02-.02.02-.01,0-.03,0-.05,0,0,0,0,.02-.02.02-.02,0-.05,0-.06,0,0,0,0,.02-.02.02-.02,0-.04,0-.06,0,0,0,0,.02-.02.02-.06.02-.12.04-.18.05,0,0,0,.02-.02.02-.02,0-.04,0-.06,0,0,0,0,.02-.02.02-.03,0-.05.02-.08.03-.07.02-.28.03-.37.02-.02,0-.01-.02-.02-.02-.04,0-.06-.02-.06-.03-.01,0-.04,0-.04,0,0,0,0-.02,0-.02,0,0-.03,0-.04,0,0,0-.07-.05-.07-.05-.08-.03-.16-.08-.24-.12-.02,0-.04-.03-.05-.03-.01,0-.03,0-.04,0,0,0,0-.02,0-.02,0,0-.03,0-.04,0,0,0-.07-.05-.07-.05-.08-.03-.16-.08-.24-.12-.02,0-.04-.03-.05-.03-.01,0-.03,0-.04,0,0,0,0-.02,0-.02,0,0-.03,0-.04,0,0,0-.06-.04-.07-.05-.09-.05-.2-.1-.3-.15-.01,0-.03,0-.03,0s0-.02,0-.02c0,0-.03,0-.04,0,0,0-.07-.05-.07-.05-.1-.03-.2-.1-.29-.15-.01,0-.03,0-.03,0s0-.02,0-.02c0,0-.03,0-.04,0,0,0-.06-.04-.07-.05-.09-.05-.2-.1-.3-.15-.01,0-.03,0-.03,0s0-.02,0-.02c0,0-.03,0-.04,0,0,0-.07-.05-.07-.05-.06-.02-.12-.05-.18-.09-.25-.13-.52-.28-.76-.4s-.45-.24-.69-.37c-.11-.06-.22-.1-.33-.18-.06-.05-.06-.06-.1-.13-.06-.1-.11-.21-.15-.33,0-.02,0-.05,0-.07,0,0-.02,0-.02-.02,0-.02,0-.06,0-.08,0-.02-.02-.03-.02-.05,0-.03,0-.07,0-.1,0-.02-.02-.03-.02-.05,0-.06,0-.13,0-.19-.04-.25-.03-.51,0-.76,0-.05,0-.12,0-.17,0-.03.02-.04.03-.06,0-.03,0-.08,0-.11,0-.02.02-.02.02-.04,0-.03,0-.07,0-.09,0-.01.02-.01.02-.02,0-.02,0-.05,0-.07,0-.02.02-.02.02-.04,0-.02,0-.04,0-.06,0-.01.02-.01.02-.02,0-.03.01-.08.03-.11,0,0,.02,0,.02-.01,0-.01,0-.04,0-.04,0,0,.02,0,.02,0,0,0,0-.03,0-.04,0-.02.1-.11.12-.13.09-.08.19-.11.3-.14,0,0,0-.02.02-.02.06-.02.12-.04.18-.05,0,0,0-.02.02-.02.02,0,.04,0,.06,0,0,0,0-.02.02-.02.06-.02.12-.04.18-.05,0,0,0-.02.02-.02.06-.02.12-.04.18-.05,0,0,0-.02.02-.02.02,0,.04,0,.06,0,0,0,0-.02.02-.02.06-.02.12-.04.18-.05,0,0,0-.02.02-.02.04-.01.17-.04.19-.05.02-.01.07-.04.09-.05.06-.02.12-.04.18-.05,0,0,0-.02.02-.02.08-.03.16-.05.24-.08.05-.02.12-.06.17-.07.02,0,.03,0,.05,0,0,0,0-.02.02-.02.06-.02.12-.04.18-.05,0,0,0-.02.02-.02.06-.02.12-.04.18-.05,0,0,0-.02.02-.02.06-.02.12-.04.18-.05,0,0,0-.02.02-.02.02,0,.04,0,.06,0,0,0,0-.02.02-.02.06-.02.12-.04.18-.05,0,0,0-.02.02-.02.01,0,.03,0,.05,0,.01,0,.01-.02.02-.02.01,0,.03,0,.05,0,0,0,.04-.02.07-.03,0,0,0-.02.02-.02.02,0,.04,0,.06,0,0,0,0-.02.02-.02.04-.01.08-.02.12-.03.02,0,.03-.02.04-.02,0,0,.07.02.08.02.01,0,.04.03.05.04Z"/>
    <path d="M7.79,6.27c.06.04.16.07.23.11.19.1.35.19.55.3.02,0,.04.03.05.03.01,0,.03,0,.04,0,0,0,0,.02,0,.02,0,0,.03,0,.04,0,0,0,.07.05.07.05.08.03.16.08.24.12.02,0,.04.03.05.03.01,0,.03,0,.04,0,0,0,0,.02,0,.02,0,0,.03,0,.04,0,0,0,.07.05.07.05.08.03.16.08.24.12.02,0,.04.03.05.03.01,0,.03,0,.04,0,0,0,0,.02,0,.02,0,0,.03,0,.04,0,0,0,.06.04.07.05.07.04.19.09.28.13,0,0,0,.02.02.02s.03,0,.04,0c0,0,0,.02,0,.02,0,0,.03,0,.04,0,0,0,.06.04.07.05.07.04.19.09.28.13,0,0,0,.02.02.02s.03,0,.04,0c0,0,0,.02,0,.02,0,0,.03,0,.04,0,0,0,.06.04.07.05.07.04.19.09.28.13,0,0,0,.02.02.02s.03,0,.04,0c0,0,0,.02,0,.02,0,0,.03,0,.04,0,0,0,.07.05.07.05.07.02.12.05.18.1.07.05.11.11.15.21.04.09.07.19.05.29,0,.02-.02.02-.02.04-.01.05,0,.03-.03.07,0,.01-.02.07-.03.09,0,.02-.14.15-.17.17-.04.02-.05.02-.08.03,0,0,0,.02-.02.02-.03.01-.07.02-.11.03,0,0,0,.02-.02.02-.02,0-.04,0-.06,0,0,0,0,.02-.02.02-.06.02-.12.03-.18.05-.04.01-.04.01-.08.02,0,0,0,.02-.02.02-.06.02-.12.03-.18.05-.04.01-.03.01-.08.02,0,0,0,.02-.02.02-.06.02-.12.03-.18.05-.04.01-.03.01-.08.02,0,0,0,.02-.02.02-.06.02-.12.03-.18.05-.04.01-.03.01-.08.02,0,0,0,.02-.02.02-.06.02-.12.03-.18.05-.04.01-.03.01-.08.02,0,0,0,.02-.02.02-.06.02-.12.03-.18.05-.04.01-.03.01-.08.02,0,0,0,.02-.02.02-.06.02-.12.03-.18.05-.04.01-.03.01-.08.02,0,0,0,.02-.02.02-.06.02-.12.03-.18.05-.04.01-.03.01-.08.02,0,0,0,.02-.02.02-.06.02-.12.03-.18.05-.04.01-.03.01-.08.02,0,0,0,.02-.02.02-.06.02-.12.03-.18.05-.04.01-.03.01-.08.02,0,0,0,.02-.02.02-.06.02-.12.03-.18.05-.04.01-.03.01-.08.02,0,0,0,.02-.02.02-.02,0-.04,0-.06,0,0,0,0,.02-.02.02-.06.02-.12.04-.18.05,0,0,0,.02-.02.02-.02,0-.04,0-.06,0,0,0,0,.02-.02.02-.06.02-.12.04-.18.05,0,0,0,.02-.02.02-.02,0-.04,0-.06,0,0,0,0,.02-.02.02-.06.02-.12.04-.18.05,0,0,0,.02-.02.02-.02,0-.04,0-.06,0,0,0,0,.02-.02.02-.06.02-.12.04-.18.05,0,0,0,.02-.02.02-.02,0-.04,0-.06,0,0,0,0,.02-.02.02-.06.02-.12.04-.18.05,0,0,0,.02-.02.02-.02,0-.04,0-.06,0,0,0,0,.02-.02.02-.06.02-.12.04-.18.05,0,0,0,.02-.02.02-.02,0-.04,0-.06,0,0,0,0,.02-.02.02-.06.02-.12.04-.18.05,0,0,0,.02-.02.02-.02,0-.04,0-.06,0,0,0,0,.02-.02.02-.01,0-.03,0-.05,0-.01,0-.01.02-.02.02-.01,0-.03,0-.05,0,0,0-.04.02-.07.03,0,0,0,.02-.02.02-.02,0-.04,0-.06,0,0,0,0,.02-.02.02-.09.03-.17.06-.26.08,0,0,0,.02-.02.02-.02,0-.04,0-.06,0s-.03.02-.05.02c-.03,0-.14,0-.16,0-.02,0-.02-.02-.04-.02-.02,0-.05,0-.07,0-.01,0-.01-.02-.02-.02-.04,0-.05,0-.09-.03-.12-.07-.25-.13-.39-.2,0,0,0-.02-.02-.02s-.03,0-.04,0c0,0,0-.02,0-.02,0,0-.03,0-.04,0,0,0-.07-.05-.07-.05-.08-.03-.16-.08-.24-.12-.02,0-.04-.03-.05-.03-.01,0-.03,0-.04,0,0,0,0-.02,0-.02,0,0-.03,0-.04,0,0,0-.02-.01-.05-.03-.07-.02-.22-.13-.31-.17-.01,0-.03,0-.03,0s0-.02,0-.02c0,0-.03,0-.04,0,0,0-.02-.01-.05-.03-.07-.02-.23-.13-.31-.17-.01,0-.03,0-.03,0s0-.02,0-.02c0,0-.03,0-.04,0,0,0-.02-.01-.05-.03-.07-.02-.23-.13-.31-.17-.01,0-.03,0-.03,0s0-.02,0-.02c0,0-.03,0-.04,0,0,0-.07-.05-.07-.05-.15-.05-.37-.19-.51-.26-.23-.12-.42-.23-.65-.35-.02,0-.04-.03-.05-.03-.01,0-.03,0-.04,0,0,0,0-.02,0-.02,0,0-.03,0-.04,0s-.01-.02-.02-.02c-.01,0-.03,0-.04,0,0,0,0-.03-.04-.02.01.04-.02.06-.03.08,0,.03,0,.06,0,.09,0,.02-.02.03-.02.04-.01.07-.01.51,0,.59,0,.03.02.03.03.05,0,.03,0,.07,0,.09.02.05.04.1.05.15,0,0,.04.01.03.07,0,0-.02,0-.02,0,0,0,0,.02,0,.02-.05.06-.11.12-.16.18-.06.02-.05-.01-.06-.02,0,0-.04-.02-.04-.04,0-.01,0-.03,0-.04-.03-.05-.09-.15-.1-.22,0-.02,0-.06,0-.08,0,0-.02,0-.03-.03,0-.03,0-.08,0-.11,0-.02-.02-.03-.02-.04-.02-.07-.02-.45,0-.53,0-.03.02-.05.03-.07,0-.04,0-.1,0-.13,0-.01.02-.02.02-.03,0-.03,0-.06.01-.09,0,0,.02,0,.02-.01.01-.06.02-.11.06-.16.07-.11.22-.14.35-.12.02,0,.02.02.03.03.06.01.09.03.14.06.1.05.2.11.31.17.17.09.33.17.52.26,0,0,0,.02.02.02s.03,0,.04,0c0,0,0,.02,0,.02,0,0,.03,0,.04,0,0,0,.07.05.07.05.08.03.16.08.24.12.02,0,.04.03.05.03.01,0,.03,0,.04,0,0,0,0,.02,0,.02,0,0,.03,0,.04,0,0,0,.06.04.07.05.07.04.19.09.28.13,0,0,0,.02.02.02s.03,0,.04,0c0,0,0,.02,0,.02,0,0,.03,0,.04,0,0,0,.06.04.07.05.07.04.19.09.28.13,0,0,0,.02.02.02s.03,0,.04,0c0,0,0,.02,0,.02,0,0,.03,0,.04,0,0,0,.06.04.07.05.07.04.19.09.28.13,0,0,0,.02.02.02s.03,0,.04,0c0,0,0,.02,0,.02,0,0,.03,0,.04,0,0,0,.06.04.07.05.07.04.19.09.28.13,0,0,0,.02.02.02s.03,0,.04,0c0,0,0,.02,0,.02,0,0,.03,0,.04,0,0,0,.06.04.07.05.07.04.19.09.28.13,0,0,0,.02.02.02s.03,0,.04,0c0,0,0,.02,0,.02,0,0,.03,0,.04,0s.01.02.02.02c.01,0,.07.02.09.03.01,0,.01.02.02.02.01,0,.12,0,.14,0s.01-.02.03-.03c.02,0,.04,0,.06,0,0,0,0-.02.02-.02.06-.02.12-.04.18-.05,0,0,0-.02.02-.02.02,0,.04,0,.06,0,0,0,0-.02.02-.02.06-.02.12-.04.18-.05,0,0,0-.02.02-.02.02,0,.04,0,.06,0,0,0,0-.02.02-.02.06-.02.12-.04.18-.05,0,0,0-.02.02-.02.02,0,.04,0,.06,0,0,0,0-.02.02-.02.06-.02.12-.04.18-.05,0,0,0-.02.02-.02.02,0,.04,0,.06,0,0,0,0-.02.02-.02.06-.02.12-.04.18-.05,0,0,0-.02.02-.02.02,0,.04,0,.06,0,0,0,0-.02.02-.02.06-.02.12-.04.18-.05,0,0,0-.02.02-.02.02,0,.04,0,.06,0,0,0,0-.02.01-.02.03-.02.15-.04.19-.06.04-.01.04-.01.08-.02,0,0,0-.02.02-.02.06-.02.12-.03.18-.05.04-.01.04-.01.08-.02,0,0,0-.02.02-.02.06-.02.12-.03.18-.05.04-.01.04-.01.08-.02,0,0,0-.02.02-.02.06-.02.12-.03.18-.05.04-.01.04-.01.08-.02,0,0,0-.02.02-.02.06-.02.12-.03.18-.05.04-.01.04-.01.08-.02,0,0,.03-.02.06-.03.05-.02.12-.06.17-.07.04-.01.07-.02.11-.03.05-.02.12-.06.17-.07.04-.01.07-.02.11-.03.05-.02.12-.06.17-.07.04-.01.07-.02.11-.03.01,0,.02-.02.03-.02.07-.02.13-.04.19-.05,0,0,0-.02.02-.02.06-.02.12-.03.18-.05.04-.01.04-.01.08-.02,0,0,0-.02.02-.02.01,0,.03,0,.05,0,.01,0,.01-.02.02-.02.04,0,.08-.02.12-.03.03-.01.03-.01.07-.02,0,0,0-.02.02-.02.02,0,.04,0,.06,0,0,0,0-.02.02-.02.06-.02.12-.04.18-.05,0,0,0-.02.02-.02.02,0,.04,0,.06,0,0,0,0-.02.02-.02.06-.02.12-.04.18-.05,0,0,0-.02.02-.02.03-.01.09-.02.12-.03.05-.02.08-.03.14-.05,0,0,0-.02.02-.02.02,0,.04,0,.06,0,0,0,0-.02.02-.02.07-.02.12-.03.18-.09,0,0,.04-.05.04-.06,0-.04,0-.09,0-.14-.03-.02-.05-.07-.08-.09-.03-.02-.08-.04-.12-.06-.12-.07-.25-.13-.39-.2,0,0,0-.02-.02-.02s-.03,0-.04,0c0,0,0-.02,0-.02,0,0-.03,0-.04,0s-.01-.02-.02-.02c-.03-.02-.09-.04-.13-.06-.22-.11-.38-.21-.6-.32-.02,0-.04-.03-.05-.03-.01,0-.03,0-.04,0,0,0,0-.02,0-.02,0,0-.03,0-.04,0,0,0-.07-.05-.07-.05-.08-.03-.16-.08-.24-.12-.02,0-.04-.03-.05-.03-.01,0-.03,0-.04,0,0,0,0-.02,0-.02,0,0-.03,0-.04,0,0,0-.06-.04-.07-.05-.09-.05-.2-.1-.3-.15-.01,0-.03,0-.03,0s0-.02,0-.02c0,0-.03,0-.04,0s-.01-.02-.02-.02c-.03-.02-.09-.04-.13-.06-.24-.13-.45-.24-.69-.37-.04-.02-.14-.06-.16-.09,0-.01,0-.03-.01-.04,0,0-.02,0-.02-.02-.01-.07,0-.12.05-.17,0,0,.02,0,.02,0,0,0,0-.02,0-.02,0,0,.03,0,.04,0,0,0,0-.02.03-.03.01,0,.04,0,.05,0,.02,0,.06.04.08.05Z"/>
    <path d="M2.49,3.77s.03,0,.05,0c0,0,.05.05.06.06,0,.02,0,.03,0,.05,0,0,.02,0,.03.04,0,.04-.02.05-.03.05,0,.01,0,.04,0,.04,0,0-.02,0-.02,0,0,0,0,.02,0,.02-.02.02-.04.04-.07.05h-.66s-.08-.03-.1-.06c0-.01,0-.03,0-.03,0,0-.02,0-.02-.02-.01-.04,0-.12.03-.15.01-.02.04-.03.05-.03,0,0,0-.02,0-.02,0,0,.06,0,.07-.03.09.01.58-.02.62,0,0,0,0,.02.01.02Z"/>
    <path d="M9.53,3.77s0,.02,0,.02c0,0,.02,0,.02,0,.05.05.07.1.05.17,0,.02-.02.02-.02.02,0,.01,0,.02-.01.04-.02.04-.06.02-.08.06h-.66s-.06-.03-.08-.05c0,0,0-.02,0-.02,0,0-.02,0-.02,0,0,0,0-.03,0-.04,0,0-.02,0-.02-.02-.02-.05.01-.06.02-.08,0-.01,0-.03,0-.04,0,0,.05-.05.05-.06.03-.01.05,0,.06-.03.18.02.42-.03.6,0,.03,0,.03.02.04.02.01,0,.04,0,.04,0Z"/>
    <path d="M2.94,5.38s.03,0,.04,0c0,0,.06.06.06.06,0,.02,0,.03,0,.05,0,.01.02.02.02.03s-.01.02-.02.03c0,.02,0,.03,0,.05,0,0-.02.01-.02.02,0,0,0,.02,0,.02-.03.04-.15.08-.19.11-.08.04-.15.1-.23.14-.04.02-.1.04-.13.06,0,0,0,.02-.02.02s-.08,0-.09,0-.01-.02-.02-.02c-.02-.01-.04,0-.07-.04-.05-.06-.05-.18,0-.23.02-.02.05-.02.07-.03.1-.07.19-.12.31-.18,0,0,0-.02.02-.02s.03,0,.04,0c0,0,0-.02,0-.02,0,0,.02,0,.03,0,.06-.03.13-.1.2-.07.01,0,.01.02.02.02Z"/>
    <path d="M8.63,5.44s0,.02,0,.02c0,0,.03,0,.04,0,0,0,.09.06.11.07.01,0,.03,0,.03,0,0,0,0,.02,0,.02,0,0,.03,0,.04,0,.01,0,.08.06.1.07.02.01.1.04.11.07,0,0,0,.02,0,.03,0,0,.02,0,.02.01,0,.01,0,.11,0,.13,0,.01-.05.08-.06.08-.01,0-.03,0-.04,0,0,0,0,.02-.01.02-.01,0-.08,0-.1,0-.01,0-.01-.02-.02-.02-.03-.02-.09-.04-.13-.06-.08-.05-.16-.1-.23-.14-.05-.03-.16-.07-.19-.11,0,0,0-.02,0-.02,0,0-.02,0-.02-.02,0-.01,0-.03,0-.05,0-.01-.02-.02-.02-.03s.01-.02.02-.03c0-.02,0-.03,0-.05,0,0,.05-.06.06-.06.01,0,.03,0,.04,0,0,0,0-.02.02-.02.07-.02.14.04.2.07.01,0,.03,0,.03,0Z"/>
    <path d="M9.01,1.88s0,.02,0,.02c0,0,.02,0,.03.01.01.01.02.05.04.06,0,.04,0,.09,0,.13,0,0-.02.04-.03.05,0,0-.02,0-.02,0s0,.02,0,.02c0,0-.1.05-.12.06-.08.05-.17.1-.26.15,0,0,0,.02-.02.02-.02,0-.04-.01-.04.03-.03,0-.06.02-.08.03,0,0,0,.01-.02.02-.02,0-.11,0-.13,0-.01,0-.01-.02-.02-.02-.01,0-.03,0-.04-.02,0-.01,0-.03-.01-.03,0,0-.02,0-.02,0,0,0,0-.03,0-.05,0-.02-.02-.03-.02-.04s.01-.02.02-.04c.02-.08.03-.08.1-.12.11-.07.23-.14.36-.2,0,0,0-.02.02-.02s.03,0,.04,0c0,0,0-.02,0-.02s.02,0,.03,0c.02-.01.08-.04.1-.04.02,0,.03.01.04.02.01,0,.04,0,.05,0Z"/>
    <path d="M2.52,1.91s0,.02,0,.02c0,0,.03,0,.04,0s.01.02.02.02c.13.07.24.13.36.2.03.02.09.05.1.09,0,0,.02.08.02.08,0,.01-.01.02-.02.04s0,.04,0,.05c0,0-.02,0-.02,0s0,.02-.02.04-.04.02-.06.04c-.04,0-.09,0-.13,0,0,0,0-.02-.01-.02-.02-.01-.06-.02-.08-.03,0-.04-.02-.02-.04-.03-.01,0-.01-.02-.02-.02-.1-.05-.2-.1-.29-.16-.02-.01-.07-.04-.09-.05,0,0,0-.02,0-.02s-.02,0-.02,0c0,0-.03-.05-.03-.05,0-.03,0-.08,0-.12.02-.01.03-.05.04-.06.01,0,.03,0,.03-.01,0,0,0-.02,0-.02,0,0,.03,0,.05,0,.02,0,.03-.02.04-.02.02,0,.08.03.1.04.01,0,.03,0,.03,0Z"/>
    <path d="M7.57.49s0,.01,0,.01c.01,0,.05,0,.05,0,0,0,0,.02,0,.02,0,0,.02,0,.03.01.01.01.01.02.02.04,0,0,.02,0,.02.02,0,.02,0,.12,0,.14,0,0-.02,0-.02.01-.06.13-.13.23-.2.36,0,.01,0,.03,0,.03,0,0-.02,0-.02,0,0,0,0,.03,0,.04,0,0-.04.07-.05.08s-.07.06-.07.06c-.02,0-.11,0-.13,0-.01,0-.01-.02-.02-.02-.01,0-.02,0-.04-.02-.02-.02-.05-.1-.05-.13,0,0,.02-.08.02-.09,0,0,.02,0,.02-.01,0-.01,0-.03,0-.03,0,0,.02,0,.02,0,0,0,0-.03,0-.04,0,0,.06-.09.07-.11,0-.01,0-.03,0-.03,0,0,.02,0,.02,0,0,0,0-.03,0-.04,0,0,.02-.03.03-.05.03-.05.07-.1.09-.15,0-.01.02-.05.03-.06.02-.02.13-.06.15-.05Z"/>
    <path d="M3.87.51s.05.05.07.09c.03.05.07.09.09.15,0,.01.03.04.03.05,0,.01,0,.03,0,.04,0,0,.02,0,.02,0,0,0,0,.02,0,.03.05.09.1.15.12.24,0,.01.02.02.01.03,0,0-.02.07-.02.08,0,.02-.05.06-.07.07,0,0,0,.02-.02.02-.02,0-.11,0-.13,0,0,0-.07-.05-.07-.06s-.05-.07-.05-.08c0-.01,0-.03,0-.04,0,0-.02,0-.02,0,0,0,0-.02,0-.03-.01-.02-.07-.1-.07-.11,0-.01,0-.03,0-.04,0,0-.02,0-.02,0s0-.02,0-.03c0-.02-.04-.05-.04-.06-.01-.03-.02-.05-.03-.08,0,0-.04-.05-.04-.06,0-.02,0-.11,0-.13,0-.01.02-.01.02-.02,0-.01,0-.03.02-.04.01,0,.03,0,.03-.01,0,0,0-.02,0-.02,0,0,.04,0,.05,0,0,0,0-.02.01-.02.02,0,.1.02.12.03Z"/>
    <path d="M5.74,0s.06.05.08.09v.69s-.02.04-.04.06c-.01.01-.04.04-.05.04-.03.01-.1,0-.14,0-.04-.03-.07-.06-.1-.1V.09s.05-.06.08-.09h.16Z"/>
  </g>
</svg>