<?xml version="1.0" encoding="UTF-8"?>
<svg id="Layer_2" data-name="Layer 2" xmlns="http://www.w3.org/2000/svg" viewBox="0 0 39.57 27.37">
  <g id="Layer_1-2" data-name="Layer 1">
    <path d="M4.53,23.93l-.7-.1c-2.18-.32-3.83-2.33-3.83-4.67V4.73C0,2.12,1.99,0,4.43,0h27.35c2.08,0,3.9,1.58,4.33,3.75l.14.7-.7-.1c-.21-.03-.33-.05-.46-.05H7.74c-1.89,0-3.43,1.67-3.43,3.73v14.42c0,.26.03.52.08.79l.14.69ZM4.43,1c-1.89,0-3.43,1.67-3.43,3.73v14.42c0,1.6.96,3,2.31,3.51,0-.08,0-.15,0-.22v-14.42c0-2.61,1.99-4.73,4.43-4.73h27.2c-.53-1.36-1.77-2.29-3.16-2.29H4.43Z"/>
    <path d="M34.75,27.37H8.17c-2.65,0-4.81-2.16-4.81-4.81V7.85c0-2.65,2.16-4.81,4.81-4.81h26.58c2.65,0,4.81,2.16,4.81,4.81v14.7c0,2.65-2.16,4.81-4.81,4.81ZM8.17,4.04c-2.1,0-3.81,1.71-3.81,3.81v14.7c0,2.1,1.71,3.81,3.81,3.81h26.58c2.1,0,3.81-1.71,3.81-3.81V7.85c0-2.1-1.71-3.81-3.81-3.81H8.17Z"/>
    <rect x="3.81" y="9.23" width="35.26" height="1"/>
    <g>
      <circle cx="8.36" cy="6.84" r="1.27"/>
      <circle cx="12.3" cy="6.84" r="1.27"/>
      <circle cx="16.24" cy="6.84" r="1.27"/>
    </g>
    <g>
      <path d="M22.54,21.58c-.13.5-.56.87-1.09.87h-4.74c-.63,0-1.15-.52-1.15-1.15v-3.49c0-.63.52-1.15,1.15-1.15h4.55s-.07-.05-.1-.08c.04.04.07.06.1.08h.19c.1,0,.18.03.27.06.23-.16.47-.32.65-.65.11-2.54-1.84-4.93-4.54-3.9-1.64.63-2.01,2.1-1.98,3.68-.76.33-1.29,1.09-1.29,1.97v3.49c0,1.19.96,2.15,2.15,2.15h4.74c1.09,0,1.98-.82,2.12-1.87h-1.03ZM19.01,13.22c1.39-.04,1.94,1.24,1.93,2.45h-3.77c0-1.17.49-2.41,1.83-2.45Z"/>
      <path d="M30.57,21.81h-9.7c-.7,0-1.28-.57-1.28-1.28v-3.28c0-.7.57-1.28,1.28-1.28h9.7c.7,0,1.28.57,1.28,1.28v3.28c0,.7-.57,1.28-1.28,1.28ZM20.86,16.97c-.15,0-.28.12-.28.28v3.28c0,.15.12.28.28.28h9.7c.15,0,.28-.12.28-.28v-3.28c0-.15-.12-.28-.28-.28h-9.7Z"/>
    </g>
    <path d="M26.99,18.26c.35.45.47-.36.59-.52.23-.31,1.61-.32,1.89-.13.22.16.66,1.19.6,1.5-.01.05-.46.88-.5.94-.19.26-1.45.29-1.71.17-.29-.13-.38-.63-.61-.83-.3-.07-.26.63-.63.8-.14.06-1.19.11-1.35.08-.53-.09-.44-.72-.78-1-.37.26-.18.72-.64.91-.32.14-1.47.14-1.69-.14-.05-.06-.58-1.01-.59-1.07-.08-.5.29-.56.39-.73.14-.25.02-.64.54-.74.24-.05,1.17-.04,1.38.05.3.14.33.65.61.83.28-.18.31-.69.61-.83.21-.09,1.14-.1,1.38-.05.49.09.37.55.53.74ZM22.98,18.4s-.1-.39-.28-.44c-.33.12,0,.62-.05.66-.03.03-.62-.06-.55.28.04.21.53.15.55.17.04.03-.18.51-.11.66.45.13.34-.4.61-.33.11.03.11.47.5.33.07-.15-.15-.63-.11-.66.03-.03.62.06.55-.28-.04-.21-.53-.15-.55-.17-.05-.04.27-.54-.05-.66-.16,0-.27.62-.5.44ZM25.75,18.4l-.28-.44c-.35.25-.24.33-.06.66-.36-.03-.62.02-.55.44h.55c.07.21-.4.54-.05.66.38.13.26-.34.55-.33.08,0,.14.49.5.33.04-.15-.18-.6-.11-.66.03-.02.79-.01.55-.33-.03-.05-.53-.09-.55-.11-.05-.05.46-1.19-.55-.22ZM28.96,18.62c.13-.13.38-.59.05-.66-.23-.05-.34.44-.44.44-.08,0-.22-.38-.33-.44-.56.05-.02.64-.05.66-.31-.02-.61,0-.55.39l.55.06c.1.09-.36.53-.22.66.3.27.57-.33.61-.33.08,0,.13.27.19.3.54.31.48-.31.2-.64h.5c.22-.37-.16-.49-.5-.44Z"/>
  </g>
</svg>