<?xml version="1.0" encoding="UTF-8"?>
<svg id="Layer_2" data-name="Layer 2" xmlns="http://www.w3.org/2000/svg" viewBox="0 0 17.06 17.06">
  <g id="Layer_3" data-name="Layer 3">
    <path d="M14.16,0c.34.13.56.35.63.72l.02,3.31,1.88,1.32c.19.17.31.39.36.64v10.1c-.06.51-.47.92-.98.98H.98c-.49-.06-.83-.42-.98-.87V5.93c.09-.22.18-.42.37-.58l1.88-1.32.02-3.31c.07-.37.29-.58.63-.72h11.26ZM3.16.58c-.12.02-.2.06-.27.16v6.58s4.63,3.62,4.63,3.62c.58-.56,1.45-.56,2.03,0l4.63-3.6V.73c-.09-.14-.24-.17-.4-.17H3.16ZM2.27,6.83v-2.07l-1.43,1,1.43,1.07ZM14.8,4.77v2.07l1.43-1.07-1.43-1ZM.57,6.3v9.65s.03.22.08.18l6.35-4.82L.57,6.3ZM16.5,15.95V6.3l-6.43,5.02,6.35,4.82c.05.03.08-.16.08-.18ZM15.9,16.5l-6.82-5.19c-.43-.28-.66-.28-1.09,0l-6.82,5.19h14.73Z"/>
    <path d="M9.86,6.5c-.85,1.02-2.54.74-2.96-.52-.56-1.7,1.4-2.98,2.76-1.87-.09-.48.54-.58.6-.08.07.59-.05,1.3,0,1.9.07.75,1.17.81,1.34.14.11-.42,0-1.29-.14-1.71-.96-2.79-5.06-2.7-5.91.13-.77,2.56,1.69,4.76,4.17,3.81.23-.09.52-.37.73-.1.32.41-.55.68-.83.77-2.97.9-5.65-1.95-4.57-4.87,1.46-3.94,7.57-2.77,7.17,1.9-.1,1.2-1.78,1.57-2.37.52ZM9.65,5.4c0-.62-.5-1.12-1.12-1.12s-1.12.5-1.12,1.12.5,1.12,1.12,1.12,1.12-.5,1.12-1.12Z"/>
  </g>
</svg>