<svg id="server" width="55" height="55" viewBox="0 0 55 55" fill="none" xmlns="http://www.w3.org/2000/svg">
<path d="M45.833 38.2085C46.6397 38.2085 47.414 38.5287 47.9844 39.0991C48.5546 39.6695 48.8749 40.443 48.875 41.2495V50.4165C48.875 51.223 48.5546 51.9965 47.9844 52.5669C47.414 53.1373 46.6397 53.4585 45.833 53.4585H9.16699C8.36029 53.4585 7.58605 53.1373 7.01562 52.5669C6.44541 51.9965 6.125 51.223 6.125 50.4165V41.2495C6.12509 40.443 6.44538 39.6695 7.01562 39.0991C7.58605 38.5287 8.36029 38.2085 9.16699 38.2085H45.833ZM21.375 47.3745H22.167V44.2915H21.375V47.3745ZM12.208 47.3745H15.292V44.2915H12.208V47.3745ZM45.833 19.8745C46.6397 19.8745 47.414 20.1957 47.9844 20.7661C48.5546 21.3365 48.875 22.11 48.875 22.9165V32.0835C48.8749 32.89 48.5546 33.6636 47.9844 34.2339C47.414 34.8043 46.6397 35.1245 45.833 35.1245H9.16699C8.36029 35.1245 7.58605 34.8043 7.01562 34.2339C6.44538 33.6636 6.12509 32.89 6.125 32.0835V22.9165C6.125 22.11 6.44541 21.3365 7.01562 20.7661C7.58605 20.1957 8.36029 19.8745 9.16699 19.8745H45.833ZM21.375 29.0415H22.167V25.9585H21.375V29.0415ZM12.208 29.0415H15.292V25.9585H12.208V29.0415ZM45.833 1.5415C46.6397 1.5415 47.414 1.86171 47.9844 2.43213C48.5548 3.00255 48.875 3.7768 48.875 4.5835V13.7495C48.875 14.5562 48.5548 15.3305 47.9844 15.9009C47.414 16.4713 46.6397 16.7915 45.833 16.7915H9.16699C8.36029 16.7915 7.58605 16.4713 7.01562 15.9009C6.4452 15.3305 6.125 14.5562 6.125 13.7495V4.5835C6.125 3.7768 6.4452 3.00255 7.01562 2.43213C7.58605 1.86171 8.36029 1.5415 9.16699 1.5415H45.833ZM21.375 10.7085H22.167V7.62451H21.375V10.7085ZM12.208 10.7085H15.292V7.62451H12.208V10.7085Z" stroke="#3AA7D9" stroke-width="1.5"/>
</svg>
