<?xml version="1.0" encoding="UTF-8"?>
<svg id="Layer_2" data-name="Layer 2" xmlns="http://www.w3.org/2000/svg" viewBox="0 0 7.49 7.49">
  <defs>
    <style>
      .cls-1 {
        fill: #3aa7d9;
      }

      .cls-2 {
        fill: #fff;
      }
    </style>
  </defs>
  <g id="Layer_3" data-name="Layer 3">
    <circle class="cls-1" cx="3.75" cy="3.75" r="3.75"/>
    <path class="cls-2" d="M3.75,5.13c-.23,0-.41.18-.41.41s.18.41.41.41.41-.18.41-.41-.18-.41-.41-.41Z"/>
    <path class="cls-2" d="M3.75,1.54c-.6,0-1.08.48-1.08,1.08,0,.17.14.31.31.31s.31-.14.31-.31c0-.26.21-.46.46-.46s.46.21.46.46c0,.13-.05.24-.13.32-.02.02-.05.05-.08.08-.1.1-.21.21-.31.33-.13.16-.25.38-.25.65v.31c0,.17.14.31.31.31s.31-.14.31-.31v-.31c0-.07.03-.16.12-.27.07-.09.15-.17.23-.25.03-.03.07-.07.11-.11.19-.19.3-.46.3-.75,0-.6-.48-1.08-1.08-1.08Z"/>
  </g>
</svg>