<svg id="tooltip" width="22" height="22" viewBox="0 0 22 22" fill="none" xmlns="http://www.w3.org/2000/svg">
<g clip-path="url(#clip0_551_1070)">
<circle cx="10.5" cy="11.5" r="7.5" fill="white"/>
<path d="M0.000976562 10.7192C0.000976563 7.87632 1.13032 5.14984 3.14057 3.13959C5.15082 1.12935 7.8773 0 10.7202 0C13.5631 0 16.2896 1.12935 18.2999 3.13959C20.3101 5.14984 21.4395 7.87632 21.4395 10.7192C21.4395 13.5622 20.3101 16.2886 18.2999 18.2989C16.2896 20.3091 13.5631 21.4385 10.7202 21.4385C7.8773 21.4385 5.15082 20.3091 3.14057 18.2989C1.13032 16.2886 0.000976563 13.5622 0.000976562 10.7192ZM6.7005 8.70938H9.38031C9.38031 8.5317 9.45089 8.36129 9.57653 8.23565C9.70217 8.11001 9.87258 8.03943 10.0503 8.03943H10.9158C11.0312 8.03948 11.1432 8.07851 11.2336 8.15018C11.324 8.22185 11.3875 8.32196 11.4139 8.43427C11.4403 8.54658 11.4279 8.66451 11.3789 8.76893C11.3298 8.87334 11.2469 8.95812 11.1436 9.00952L9.38031 9.89118V12.0591H12.0601V11.5473L12.3428 11.4053C12.9855 11.0835 13.5008 10.5543 13.8052 9.9033C14.1097 9.25227 14.1855 8.51754 14.0204 7.81807C13.8553 7.11859 13.4589 6.49532 12.8955 6.04914C12.3321 5.60297 11.6345 5.36001 10.9158 5.35962H10.0503C9.16185 5.35962 8.30982 5.71254 7.68162 6.34074C7.05342 6.96894 6.7005 7.82097 6.7005 8.70938ZM10.7202 16.0789C11.0756 16.0789 11.4164 15.9377 11.6677 15.6864C11.919 15.4351 12.0601 15.0943 12.0601 14.739C12.0601 14.3836 11.919 14.0428 11.6677 13.7915C11.4164 13.5402 11.0756 13.399 10.7202 13.399C10.3648 13.399 10.024 13.5402 9.77276 13.7915C9.52148 14.0428 9.38031 14.3836 9.38031 14.739C9.38031 15.0943 9.52148 15.4351 9.77276 15.6864C10.024 15.9377 10.3648 16.0789 10.7202 16.0789Z" fill="#0D99FF"/>
</g>
<defs>
<clipPath id="clip0_551_1070">
<rect width="21.4385" height="21.4385" fill="white" transform="translate(0.000976562)"/>
</clipPath>
</defs>
</svg>
