<svg width="31" height="31" viewBox="0 0 31 31" fill="none" xmlns="http://www.w3.org/2000/svg">
<path d="M20.15 24.0248H9.6875L15.8875 9.2998L20.15 24.0248Z" fill="black"/>
<path d="M5.32921 25.8334C5.12771 25.8334 4.94946 25.7857 4.79446 25.6901C4.63946 25.5945 4.5189 25.4683 4.43279 25.3116C4.33979 25.1575 4.28812 24.9908 4.27779 24.8117C4.26918 24.6318 4.31999 24.4505 4.43021 24.2679L14.5956 6.73228C14.7058 6.54973 14.8385 6.41712 14.9935 6.33445C15.1485 6.25178 15.3172 6.21045 15.4998 6.21045C15.6823 6.21045 15.8507 6.25178 16.0048 6.33445C16.159 6.41712 16.2916 6.54973 16.4027 6.73228L26.5694 24.2679C26.6796 24.4505 26.73 24.6313 26.7205 24.8104C26.7119 24.9913 26.6602 25.1583 26.5655 25.3116C26.4794 25.4683 26.3588 25.5945 26.2038 25.6901C26.0488 25.7857 25.871 25.8334 25.6704 25.8334H5.32921ZM15.4998 22.7541C15.7254 22.7541 15.9144 22.6779 16.0668 22.5255C16.2192 22.3731 16.295 22.1841 16.2942 21.9584C16.2933 21.7328 16.2171 21.5443 16.0655 21.3927C15.914 21.2411 15.7254 21.1645 15.4998 21.1628C15.2742 21.1611 15.0856 21.2373 14.934 21.3914C14.7825 21.5455 14.7063 21.7346 14.7054 21.9584C14.7046 22.1823 14.7808 22.3713 14.934 22.5255C15.0873 22.6796 15.2759 22.7558 15.4998 22.7541ZM15.4998 19.8724C15.6841 19.8724 15.8378 19.8104 15.9609 19.6864C16.0841 19.5624 16.1456 19.4091 16.1456 19.2266V14.0599C16.1456 13.8765 16.0836 13.7228 15.9596 13.5988C15.8356 13.4748 15.6819 13.4132 15.4985 13.4141C15.3151 13.4149 15.1618 13.4765 15.0387 13.5988C14.9155 13.7211 14.854 13.8748 14.854 14.0599V19.2266C14.854 19.4091 14.916 19.5624 15.04 19.6864C15.164 19.8104 15.3177 19.8724 15.5011 19.8724" fill="#FFCD29"/>
</svg>
